<svg width="48" height="48" viewBox="0 0 48 48" fill="none" xmlns="http://www.w3.org/2000/svg">
<rect width="48" height="48" rx="8" fill="#E9E9E9"/>
<path d="M11.544 36.6C11.28 36.6 11.052 36.504 10.86 36.312C10.668 36.12 10.572 35.892 10.572 35.628V12.372C10.572 12.108 10.668 11.88 10.86 11.688C11.052 11.496 11.28 11.4 11.544 11.4H17.232C17.712 11.4 18.072 11.532 18.312 11.796C18.552 12.06 18.708 12.252 18.78 12.372L24 21.012L29.22 12.372C29.292 12.252 29.448 12.06 29.688 11.796C29.928 11.532 30.288 11.4 30.768 11.4H36.456C36.72 11.4 36.948 11.496 37.14 11.688C37.332 11.88 37.428 12.108 37.428 12.372V35.628C37.428 35.892 37.332 36.12 37.14 36.312C36.948 36.504 36.72 36.6 36.456 36.6H29.94C29.676 36.6 29.448 36.504 29.256 36.312C29.064 36.12 28.968 35.892 28.968 35.628V25.764L26.592 29.652C26.472 29.844 26.304 30.048 26.088 30.264C25.896 30.456 25.62 30.552 25.26 30.552H22.74C22.38 30.552 22.092 30.456 21.876 30.264C21.684 30.048 21.528 29.844 21.408 29.652L19.032 25.764V35.628C19.032 35.892 18.936 36.12 18.744 36.312C18.552 36.504 18.324 36.6 18.06 36.6H11.544ZM35.916 12.408C35.676 12.264 35.436 12.312 35.196 12.552C35.1 12.648 35.064 12.744 35.088 12.84C35.136 12.912 35.196 13.02 35.268 13.164C35.34 13.284 35.388 13.38 35.412 13.452C35.46 13.524 35.556 13.548 35.7 13.524C35.868 13.5 35.988 13.464 36.06 13.416C36.156 13.368 36.216 13.26 36.24 13.092C36.288 12.78 36.18 12.552 35.916 12.408ZM30.588 12.876C30.42 12.804 30.288 12.804 30.192 12.876C30.12 12.948 30.024 13.056 29.904 13.2C29.808 13.32 29.772 13.428 29.796 13.524C29.82 13.596 29.868 13.692 29.94 13.812C30.06 14.004 30.228 14.076 30.444 14.028C30.66 13.956 30.78 13.812 30.804 13.596C30.804 13.404 30.804 13.26 30.804 13.164C30.828 13.044 30.756 12.948 30.588 12.876ZM12.228 13.164L11.76 13.308L11.4 13.668L11.868 13.956L12.336 13.74L12.228 13.164ZM33.432 15.432C33.144 15.36 32.964 15.408 32.892 15.576C32.844 15.744 32.748 15.936 32.604 16.152C32.46 16.392 32.34 16.572 32.244 16.692C32.148 16.812 32.184 16.98 32.352 17.196C32.544 17.412 32.712 17.532 32.856 17.556C33 17.556 33.216 17.496 33.504 17.376C33.744 17.28 33.888 17.172 33.936 17.052C34.008 16.908 34.032 16.704 34.008 16.44C33.984 16.152 33.948 15.936 33.9 15.792C33.852 15.624 33.696 15.504 33.432 15.432ZM13.56 16.44C13.512 16.224 13.464 16.068 13.416 15.972C13.368 15.876 13.236 15.828 13.02 15.828C12.804 15.828 12.648 15.864 12.552 15.936C12.48 15.984 12.396 16.116 12.3 16.332C12.228 16.5 12.228 16.632 12.3 16.728C12.372 16.8 12.48 16.896 12.624 17.016C12.84 17.208 13.068 17.22 13.308 17.052C13.548 16.908 13.632 16.704 13.56 16.44ZM17.376 16.332C17.328 16.164 17.184 16.092 16.944 16.116C16.824 16.116 16.716 16.128 16.62 16.152C16.548 16.152 16.488 16.212 16.44 16.332C16.416 16.476 16.44 16.56 16.512 16.584C16.608 16.608 16.716 16.656 16.836 16.728C16.932 16.8 17.004 16.872 17.052 16.944C17.124 16.992 17.22 16.968 17.34 16.872C17.436 16.8 17.472 16.728 17.448 16.656C17.448 16.56 17.424 16.452 17.376 16.332ZM30.696 17.16C30.504 17.16 30.348 17.16 30.228 17.16C30.132 17.136 30.048 17.22 29.976 17.412C29.904 17.628 29.88 17.796 29.904 17.916C29.928 18.012 30.024 18.132 30.192 18.276C30.36 18.42 30.492 18.456 30.588 18.384C30.684 18.312 30.816 18.216 30.984 18.096C31.152 18 31.272 17.916 31.344 17.844C31.416 17.772 31.428 17.64 31.38 17.448C31.332 17.28 31.248 17.196 31.128 17.196C31.032 17.172 30.888 17.16 30.696 17.16ZM19.788 18.672C19.596 18.48 19.428 18.36 19.284 18.312C19.164 18.24 18.996 18.264 18.78 18.384C18.516 18.528 18.336 18.672 18.24 18.816C18.168 18.936 18.168 19.152 18.24 19.464C18.288 19.728 18.372 19.896 18.492 19.968C18.636 20.016 18.852 20.064 19.14 20.112C19.356 20.136 19.5 20.1 19.572 20.004C19.644 19.884 19.728 19.728 19.824 19.536C19.92 19.344 19.98 19.188 20.004 19.068C20.028 18.948 19.956 18.816 19.788 18.672ZM16.044 18.744C15.396 18.504 14.904 18.456 14.568 18.6C14.232 18.72 13.848 19.044 13.416 19.572C13.2 19.884 13.116 20.136 13.164 20.328C13.212 20.52 13.332 20.724 13.524 20.94C13.716 21.156 13.908 21.42 14.1 21.732C14.388 22.14 14.616 22.476 14.784 22.74C14.952 22.98 15.276 23.028 15.756 22.884C16.26 22.74 16.524 22.524 16.548 22.236C16.596 21.948 16.632 21.54 16.656 21.012C16.68 20.628 16.716 20.292 16.764 20.004C16.812 19.716 16.788 19.476 16.692 19.284C16.62 19.068 16.404 18.888 16.044 18.744ZM34.656 18.816C34.488 18.792 34.356 18.78 34.26 18.78C34.164 18.78 34.08 18.864 34.008 19.032C33.936 19.176 33.948 19.272 34.044 19.32C34.14 19.368 34.248 19.44 34.368 19.536C34.464 19.656 34.536 19.764 34.584 19.86C34.632 19.956 34.728 19.968 34.872 19.896C35.136 19.776 35.244 19.548 35.196 19.212C35.172 19.068 35.112 18.972 35.016 18.924C34.944 18.876 34.824 18.84 34.656 18.816ZM33.468 21.156C33.348 21.012 33.228 20.952 33.108 20.976C32.988 20.976 32.832 21.012 32.64 21.084C32.496 21.132 32.424 21.204 32.424 21.3C32.424 21.396 32.424 21.516 32.424 21.66C32.424 21.9 32.52 22.044 32.712 22.092C32.928 22.164 33.096 22.236 33.216 22.308C33.336 22.38 33.456 22.32 33.576 22.128C33.72 21.936 33.78 21.78 33.756 21.66C33.732 21.516 33.636 21.348 33.468 21.156ZM27.24 21.588C26.928 21.396 26.676 21.324 26.484 21.372C26.292 21.396 26.052 21.528 25.764 21.768C25.38 22.08 25.044 22.32 24.756 22.488C24.492 22.632 24.444 22.932 24.612 23.388C24.804 23.892 25.032 24.18 25.296 24.252C25.584 24.324 26.004 24.348 26.556 24.324C26.988 24.3 27.264 24.192 27.384 24C27.528 23.808 27.672 23.496 27.816 23.064C27.912 22.704 27.912 22.428 27.816 22.236C27.744 22.044 27.552 21.828 27.24 21.588ZM30.804 22.2C30.636 22.032 30.48 21.984 30.336 22.056C30.168 22.152 30.096 22.308 30.12 22.524C30.144 22.668 30.168 22.788 30.192 22.884C30.24 22.956 30.336 23.004 30.48 23.028C30.624 23.052 30.708 23.028 30.732 22.956C30.78 22.86 30.84 22.752 30.912 22.632C30.984 22.488 30.948 22.344 30.804 22.2ZM20.256 22.2C20.184 22.104 20.064 22.104 19.896 22.2C19.776 22.248 19.68 22.284 19.608 22.308C19.56 22.332 19.536 22.392 19.536 22.488C19.56 22.68 19.692 22.8 19.932 22.848C20.172 22.896 20.328 22.836 20.4 22.668C20.472 22.572 20.484 22.5 20.436 22.452C20.412 22.38 20.352 22.296 20.256 22.2ZM33.396 23.64C33.396 23.472 33.408 23.34 33.432 23.244C33.48 23.148 33.432 23.076 33.288 23.028C33.12 22.98 33 22.992 32.928 23.064C32.88 23.136 32.796 23.232 32.676 23.352C32.58 23.52 32.592 23.7 32.712 23.892C32.808 24.012 32.88 24.096 32.928 24.144C33 24.192 33.108 24.192 33.252 24.144C33.372 24.12 33.42 24.072 33.396 24C33.396 23.904 33.396 23.784 33.396 23.64ZM23.064 23.532C22.776 23.412 22.56 23.412 22.416 23.532C22.272 23.652 22.104 23.844 21.912 24.108C21.696 24.372 21.528 24.588 21.408 24.756C21.288 24.9 21.324 25.116 21.516 25.404C21.732 25.74 21.936 25.944 22.128 26.016C22.32 26.064 22.596 26.04 22.956 25.944C23.292 25.848 23.46 25.704 23.46 25.512C23.484 25.32 23.508 25.056 23.532 24.72C23.556 24.408 23.556 24.168 23.532 24C23.532 23.808 23.376 23.652 23.064 23.532ZM12.372 23.892L12.12 23.676L12.012 24L12.12 24.216L12.408 24.18L12.372 23.892ZM36.06 25.548C35.916 25.092 35.736 24.804 35.52 24.684C35.304 24.54 34.956 24.468 34.476 24.468C34.02 24.468 33.696 24.552 33.504 24.72C33.336 24.864 33.18 25.152 33.036 25.584C32.916 25.992 32.904 26.292 33 26.484C33.096 26.676 33.324 26.904 33.684 27.168C33.972 27.384 34.212 27.456 34.404 27.384C34.596 27.312 34.836 27.168 35.124 26.952C35.46 26.712 35.724 26.52 35.916 26.376C36.132 26.208 36.18 25.932 36.06 25.548ZM18.06 24.468L17.88 24.612L17.844 24.864L18.132 24.9L18.204 24.648L18.06 24.468ZM13.92 25.8C13.632 25.608 13.404 25.464 13.236 25.368C13.068 25.248 12.852 25.284 12.588 25.476C12.3 25.692 12.168 25.896 12.192 26.088C12.216 26.28 12.288 26.544 12.408 26.88C12.504 27.216 12.612 27.456 12.732 27.6C12.852 27.72 13.08 27.78 13.416 27.78C13.848 27.78 14.184 27.768 14.424 27.744C14.688 27.696 14.88 27.468 15 27.06C15.12 26.652 15.048 26.4 14.784 26.304C14.544 26.208 14.256 26.04 13.92 25.8ZM17.736 25.872L17.34 25.62L17.16 26.016L17.268 26.304L17.736 26.34V25.872ZM24.828 26.34C24.636 26.244 24.492 26.232 24.396 26.304C24.3 26.376 24.18 26.484 24.036 26.628C23.844 26.82 23.82 27.048 23.964 27.312C24.036 27.456 24.096 27.564 24.144 27.636C24.216 27.708 24.348 27.732 24.54 27.708C24.732 27.684 24.876 27.648 24.972 27.6C25.068 27.528 25.14 27.396 25.188 27.204C25.212 26.964 25.2 26.784 25.152 26.664C25.128 26.544 25.02 26.436 24.828 26.34ZM33.036 28.68C32.748 28.44 32.52 28.392 32.352 28.536C32.184 28.656 31.944 28.812 31.632 29.004C31.296 29.22 30.996 29.376 30.732 29.472C30.492 29.568 30.432 29.82 30.552 30.228C30.648 30.66 30.804 30.924 31.02 31.02C31.26 31.092 31.608 31.14 32.064 31.164C32.424 31.188 32.652 31.116 32.748 30.948C32.868 30.756 32.988 30.492 33.108 30.156C33.252 29.82 33.348 29.556 33.396 29.364C33.444 29.148 33.324 28.92 33.036 28.68ZM35.196 28.824L34.728 28.932L34.584 29.436L35.052 29.508L35.412 29.292L35.196 28.824ZM15.216 30.264C15.216 30.072 15.216 29.928 15.216 29.832C15.216 29.736 15.132 29.664 14.964 29.616C14.796 29.568 14.676 29.592 14.604 29.688C14.556 29.76 14.484 29.868 14.388 30.012C14.292 30.18 14.316 30.348 14.46 30.516C14.604 30.732 14.772 30.804 14.964 30.732C15.132 30.66 15.216 30.504 15.216 30.264ZM35.196 33.324C35.028 33.036 34.884 32.82 34.764 32.676C34.668 32.532 34.452 32.496 34.116 32.568C33.78 32.64 33.552 32.748 33.432 32.892C33.312 33.036 33.228 33.288 33.18 33.648C33.156 33.984 33.192 34.224 33.288 34.368C33.384 34.512 33.588 34.656 33.9 34.8C34.26 34.968 34.548 35.1 34.764 35.196C34.98 35.268 35.22 35.148 35.484 34.836C35.748 34.572 35.808 34.344 35.664 34.152C35.544 33.936 35.388 33.66 35.196 33.324ZM15.756 32.82L15.396 32.604L14.892 32.568L14.928 33.18H15.468L15.756 32.82ZM30.624 33.36L30.264 33.54V33.972L30.696 34.116L30.948 33.684L30.624 33.36Z" fill="#00030C"/>
</svg>
