<svg width="63" height="49" viewBox="0 0 63 49" fill="none" xmlns="http://www.w3.org/2000/svg">
<path d="M7.596 34.36C6.228 34.36 5.016 34.108 3.96 33.604C2.904 33.1 2.076 32.416 1.476 31.552C0.9 30.688 0.612 29.716 0.612 28.636C0.612 26.884 1.32 25.516 2.736 24.532C4.176 23.524 6.096 22.816 8.496 22.408L12.312 21.76C12.312 21.136 12.252 20.68 12.132 20.392C12.036 20.104 11.736 19.96 11.232 19.96C10.896 19.96 10.62 20.032 10.404 20.176C10.212 20.296 9.996 20.476 9.756 20.716C9.492 20.98 9.156 21.112 8.748 21.112H2.628C2.388 21.112 2.184 21.04 2.016 20.896C1.872 20.752 1.812 20.56 1.836 20.32C1.86 19.864 2.052 19.336 2.412 18.736C2.772 18.112 3.324 17.512 4.068 16.936C4.836 16.36 5.808 15.88 6.984 15.496C8.184 15.112 9.624 14.92 11.304 14.92C14.568 14.92 16.992 15.604 18.576 16.972C20.16 18.316 20.952 20.224 20.952 22.696V33.028C20.952 33.292 20.856 33.52 20.664 33.712C20.472 33.904 20.244 34 19.98 34H13.68C13.416 34 13.188 33.904 12.996 33.712C12.804 33.52 12.708 33.292 12.708 33.028V32.02C12.18 32.74 11.472 33.316 10.584 33.748C9.72 34.156 8.724 34.36 7.596 34.36ZM10.548 15.856H10.188L10.008 16.072L10.152 16.396L10.512 16.252L10.548 15.856ZM9.036 16.54C8.82 16.468 8.64 16.42 8.496 16.396C8.376 16.348 8.256 16.408 8.136 16.576C7.992 16.792 7.932 16.96 7.956 17.08C8.004 17.2 8.1 17.356 8.244 17.548C8.364 17.716 8.472 17.8 8.568 17.8C8.688 17.776 8.844 17.728 9.036 17.656C9.3 17.584 9.432 17.404 9.432 17.116C9.432 16.804 9.3 16.612 9.036 16.54ZM15.084 16.828C14.988 16.612 14.808 16.516 14.544 16.54C14.28 16.564 14.124 16.696 14.076 16.936C14.052 17.104 14.04 17.236 14.04 17.332C14.04 17.428 14.112 17.524 14.256 17.62C14.424 17.692 14.544 17.716 14.616 17.692C14.712 17.668 14.832 17.596 14.976 17.476C15.168 17.308 15.204 17.092 15.084 16.828ZM12.924 17.692C12.636 17.692 12.444 17.836 12.348 18.124C12.3 18.268 12.3 18.376 12.348 18.448C12.396 18.496 12.48 18.568 12.6 18.664C12.768 18.808 12.948 18.82 13.14 18.7C13.284 18.604 13.332 18.436 13.284 18.196C13.236 18.052 13.2 17.932 13.176 17.836C13.152 17.74 13.068 17.692 12.924 17.692ZM5.256 17.836C5.112 17.74 4.992 17.716 4.896 17.764C4.824 17.812 4.716 17.896 4.572 18.016C4.452 18.136 4.356 18.232 4.284 18.304C4.236 18.376 4.236 18.496 4.284 18.664C4.356 18.832 4.428 18.952 4.5 19.024C4.596 19.096 4.74 19.12 4.932 19.096C5.124 19.072 5.256 19.024 5.328 18.952C5.4 18.88 5.448 18.748 5.472 18.556C5.52 18.364 5.532 18.22 5.508 18.124C5.508 18.028 5.424 17.932 5.256 17.836ZM17.676 19.096L17.352 19.204L17.064 19.42L17.388 19.528L17.712 19.492L17.676 19.096ZM16.164 19.78C16.02 19.66 15.9 19.576 15.804 19.528C15.732 19.456 15.612 19.468 15.444 19.564C15.3 19.66 15.24 19.768 15.264 19.888C15.312 19.984 15.36 20.116 15.408 20.284C15.456 20.452 15.492 20.596 15.516 20.716C15.54 20.836 15.636 20.896 15.804 20.896C16.02 20.896 16.176 20.872 16.272 20.824C16.368 20.776 16.464 20.656 16.56 20.464C16.608 20.272 16.584 20.14 16.488 20.068C16.416 19.996 16.308 19.9 16.164 19.78ZM6.192 19.852L5.796 19.528L5.436 19.816L5.544 20.284L5.94 20.176L6.192 19.852ZM14.004 20.572L13.68 20.14L13.356 20.536L13.392 20.896L13.788 21.004L14.004 20.572ZM19.368 21.796C19.224 21.652 19.104 21.556 19.008 21.508C18.912 21.46 18.78 21.484 18.612 21.58C18.42 21.676 18.3 21.784 18.252 21.904C18.228 22 18.228 22.144 18.252 22.336C18.3 22.528 18.36 22.648 18.432 22.696C18.528 22.72 18.672 22.744 18.864 22.768C19.032 22.792 19.152 22.792 19.224 22.768C19.32 22.744 19.404 22.648 19.476 22.48C19.62 22.216 19.584 21.988 19.368 21.796ZM15.516 23.02L15.264 22.768L14.94 23.092L15.192 23.488L15.588 23.344L15.516 23.02ZM8.712 23.452C8.544 23.26 8.328 23.212 8.064 23.308C7.896 23.356 7.776 23.416 7.704 23.488C7.656 23.536 7.632 23.644 7.632 23.812C7.632 23.98 7.668 24.088 7.74 24.136C7.812 24.184 7.932 24.232 8.1 24.28C8.268 24.352 8.4 24.4 8.496 24.424C8.616 24.448 8.724 24.376 8.82 24.208C8.94 24.064 8.976 23.944 8.928 23.848C8.904 23.752 8.832 23.62 8.712 23.452ZM14.184 23.488L13.86 23.524L13.68 23.74L13.896 24.028L14.184 23.812V23.488ZM6.048 23.92C5.856 23.872 5.712 23.884 5.616 23.956C5.544 24.004 5.46 24.112 5.364 24.28C5.244 24.424 5.16 24.556 5.112 24.676C5.088 24.772 5.136 24.892 5.256 25.036C5.376 25.18 5.484 25.252 5.58 25.252C5.676 25.228 5.82 25.18 6.012 25.108C6.276 25.012 6.408 24.844 6.408 24.604C6.408 24.412 6.396 24.268 6.372 24.172C6.348 24.052 6.24 23.968 6.048 23.92ZM19.008 25.396C18.864 24.892 18.648 24.604 18.36 24.532C18.096 24.436 17.7 24.376 17.172 24.352C16.644 24.328 16.248 24.364 15.984 24.46C15.72 24.532 15.504 24.808 15.336 25.288C15.12 25.864 15 26.332 14.976 26.692C14.952 27.028 15.192 27.376 15.696 27.736C16.152 28.096 16.512 28.168 16.776 27.952C17.04 27.736 17.412 27.46 17.892 27.124C18.324 26.836 18.648 26.596 18.864 26.404C19.104 26.212 19.152 25.876 19.008 25.396ZM3.492 25.396C3.324 25.396 3.204 25.408 3.132 25.432C3.06 25.456 2.988 25.54 2.916 25.684C2.844 25.876 2.784 26.044 2.736 26.188C2.688 26.308 2.748 26.428 2.916 26.548C3.108 26.716 3.264 26.812 3.384 26.836C3.528 26.86 3.708 26.8 3.924 26.656C4.14 26.536 4.248 26.416 4.248 26.296C4.248 26.152 4.212 25.96 4.14 25.72C4.116 25.552 4.044 25.468 3.924 25.468C3.828 25.444 3.684 25.42 3.492 25.396ZM8.028 26.044C7.788 25.948 7.596 25.972 7.452 26.116C7.308 26.26 7.296 26.452 7.416 26.692C7.536 26.884 7.692 26.968 7.884 26.944C8.052 26.92 8.172 26.896 8.244 26.872C8.316 26.824 8.364 26.716 8.388 26.548C8.412 26.404 8.388 26.308 8.316 26.26C8.268 26.188 8.172 26.116 8.028 26.044ZM10.08 29.032C10.776 29.032 11.34 28.804 11.772 28.348C12.204 27.892 12.42 27.184 12.42 26.224L10.296 26.692C9.672 26.836 9.252 27.028 9.036 27.268C8.82 27.508 8.712 27.76 8.712 28.024C8.712 28.288 8.82 28.528 9.036 28.744C9.276 28.936 9.624 29.032 10.08 29.032ZM3.564 27.7C3.156 27.604 2.844 27.592 2.628 27.664C2.412 27.736 2.196 27.952 1.98 28.312C1.788 28.624 1.788 28.852 1.98 28.996C2.196 29.14 2.424 29.344 2.664 29.608C2.832 29.8 2.976 29.932 3.096 30.004C3.24 30.052 3.432 30.028 3.672 29.932C4.032 29.764 4.32 29.656 4.536 29.608C4.776 29.536 4.884 29.296 4.86 28.888C4.812 28.456 4.692 28.18 4.5 28.06C4.308 27.916 3.996 27.796 3.564 27.7ZM7.38 28.528C7.26 28.36 7.14 28.3 7.02 28.348C6.876 28.372 6.768 28.408 6.696 28.456C6.648 28.48 6.624 28.564 6.624 28.708C6.624 28.828 6.66 28.9 6.732 28.924C6.828 28.924 6.936 28.948 7.056 28.996C7.2 29.044 7.308 29.008 7.38 28.888C7.476 28.768 7.476 28.648 7.38 28.528ZM15.804 28.672L15.444 28.42L15.192 28.708L15.264 29.032H15.624L15.804 28.672ZM14.112 29.752C14.04 29.608 13.956 29.536 13.86 29.536C13.764 29.536 13.632 29.548 13.464 29.572C13.248 29.62 13.116 29.752 13.068 29.968C13.044 30.16 13.14 30.316 13.356 30.436C13.5 30.508 13.656 30.472 13.824 30.328C13.944 30.208 14.04 30.124 14.112 30.076C14.184 30.004 14.184 29.896 14.112 29.752ZM18.684 30.148C18.66 29.956 18.54 29.836 18.324 29.788C18.204 29.764 18.108 29.752 18.036 29.752C17.964 29.752 17.892 29.812 17.82 29.932C17.676 30.172 17.688 30.376 17.856 30.544C17.952 30.64 18.036 30.664 18.108 30.616C18.18 30.568 18.276 30.52 18.396 30.472C18.492 30.424 18.564 30.388 18.612 30.364C18.66 30.316 18.684 30.244 18.684 30.148ZM8.676 30.868C8.58 30.604 8.46 30.448 8.316 30.4C8.172 30.328 7.956 30.292 7.668 30.292C7.428 30.292 7.272 30.352 7.2 30.472C7.128 30.592 7.056 30.772 6.984 31.012C6.912 31.3 6.852 31.528 6.804 31.696C6.756 31.84 6.852 31.996 7.092 32.164C7.308 32.308 7.476 32.32 7.596 32.2C7.716 32.056 7.884 31.9 8.1 31.732C8.316 31.564 8.484 31.444 8.604 31.372C8.748 31.276 8.772 31.108 8.676 30.868ZM16.2 30.58C16.056 30.46 15.924 30.4 15.804 30.4C15.708 30.376 15.588 30.424 15.444 30.544C15.18 30.76 15.108 31.024 15.228 31.336C15.3 31.504 15.384 31.6 15.48 31.624C15.576 31.624 15.72 31.624 15.912 31.624C16.152 31.6 16.308 31.468 16.38 31.228C16.404 31.06 16.416 30.928 16.416 30.832C16.416 30.736 16.344 30.652 16.2 30.58ZM10.188 31.912L9.792 31.624L9.504 31.876L9.396 32.272L9.864 32.236L10.188 31.912ZM5.22 31.732C5.028 31.66 4.896 31.672 4.824 31.768C4.776 31.864 4.692 31.984 4.572 32.128C4.476 32.248 4.404 32.344 4.356 32.416C4.308 32.488 4.32 32.584 4.392 32.704C4.512 32.92 4.716 33.004 5.004 32.956C5.196 32.908 5.34 32.872 5.436 32.848C5.532 32.8 5.592 32.68 5.616 32.488C5.64 32.272 5.628 32.116 5.58 32.02C5.532 31.9 5.412 31.804 5.22 31.732ZM15.336 32.704L15.12 32.344L14.76 32.704L14.976 33.1L15.3 32.92L15.336 32.704ZM18.504 32.632L18.18 32.74L18 32.956L18.252 33.136L18.504 32.956V32.632ZM24.9865 34C24.7225 34 24.4945 33.904 24.3025 33.712C24.1105 33.52 24.0145 33.292 24.0145 33.028V16.252C24.0145 15.988 24.1105 15.76 24.3025 15.568C24.4945 15.376 24.7225 15.28 24.9865 15.28H31.2865C31.5505 15.28 31.7785 15.376 31.9705 15.568C32.1625 15.76 32.2585 15.988 32.2585 16.252V17.512C33.0265 16.84 33.8785 16.3 34.8145 15.892C35.7745 15.484 36.7945 15.28 37.8745 15.28H39.6025C39.8665 15.28 40.0945 15.376 40.2865 15.568C40.4785 15.76 40.5745 15.988 40.5745 16.252V21.868C40.5745 22.132 40.4785 22.36 40.2865 22.552C40.0945 22.744 39.8665 22.84 39.6025 22.84H34.9585C33.5185 22.84 32.7985 23.56 32.7985 25V33.028C32.7985 33.292 32.7025 33.52 32.5105 33.712C32.3185 33.904 32.0905 34 31.8265 34H24.9865ZM30.2065 17.296C30.1105 17.056 30.0025 16.888 29.8825 16.792C29.7865 16.696 29.6065 16.648 29.3425 16.648C29.0305 16.648 28.7905 16.672 28.6225 16.72C28.4785 16.768 28.3585 16.936 28.2625 17.224C28.1425 17.584 28.0705 17.872 28.0465 18.088C28.0465 18.28 28.2025 18.496 28.5145 18.736C28.8265 18.952 29.0785 19.036 29.2705 18.988C29.4865 18.94 29.7505 18.808 30.0625 18.592C30.3265 18.4 30.4345 18.22 30.3865 18.052C30.3625 17.86 30.3025 17.608 30.2065 17.296ZM36.0385 16.936L35.7505 16.864L35.4625 16.972L35.6065 17.26L35.9665 17.296L36.0385 16.936ZM34.8145 17.836C34.2865 17.62 33.8785 17.572 33.5905 17.692C33.3025 17.788 32.9785 18.064 32.6185 18.52C32.2585 18.952 32.0665 19.312 32.0425 19.6C32.0425 19.888 32.1985 20.272 32.5105 20.752C32.7985 21.232 33.0745 21.532 33.3385 21.652C33.6265 21.748 34.0465 21.724 34.5985 21.58C35.1265 21.436 35.4505 21.244 35.5705 21.004C35.7145 20.74 35.7985 20.344 35.8225 19.816C35.8465 19.24 35.8105 18.82 35.7145 18.556C35.6425 18.268 35.3425 18.028 34.8145 17.836ZM25.6705 18.844L25.4185 19.024L25.4905 19.312L25.8505 19.348L25.9945 19.024L25.6705 18.844ZM39.3145 19.996C39.2665 19.78 39.1945 19.648 39.0985 19.6C39.0025 19.528 38.8345 19.468 38.5945 19.42C38.3305 19.396 38.1145 19.372 37.9465 19.348C37.8025 19.324 37.6705 19.432 37.5505 19.672C37.4065 19.936 37.3465 20.152 37.3705 20.32C37.3945 20.464 37.5145 20.656 37.7305 20.896C37.9465 21.088 38.1265 21.184 38.2705 21.184C38.4385 21.16 38.6425 21.076 38.8825 20.932C39.1225 20.812 39.2545 20.692 39.2785 20.572C39.3265 20.452 39.3385 20.26 39.3145 19.996ZM29.1265 21.184C29.0785 20.728 28.9345 20.452 28.6945 20.356C28.4785 20.26 28.1545 20.164 27.7225 20.068C27.2185 19.948 26.8105 19.84 26.4985 19.744C26.2105 19.648 25.9345 19.828 25.6705 20.284C25.4065 20.74 25.3585 21.088 25.5265 21.328C25.7185 21.568 25.9825 21.892 26.3185 22.3C26.6545 22.684 26.9305 22.96 27.1465 23.128C27.3625 23.272 27.6985 23.248 28.1545 23.056C28.6345 22.84 28.9225 22.612 29.0185 22.372C29.1385 22.108 29.1745 21.712 29.1265 21.184ZM32.2225 22.156C32.0545 21.916 31.8985 21.76 31.7545 21.688C31.6345 21.616 31.4305 21.616 31.1425 21.688C30.8785 21.76 30.7225 21.88 30.6745 22.048C30.6505 22.192 30.6385 22.396 30.6385 22.66C30.6385 22.924 30.6625 23.116 30.7105 23.236C30.7585 23.356 30.8905 23.452 31.1065 23.524C31.3705 23.62 31.5625 23.656 31.6825 23.632C31.8265 23.584 31.9825 23.452 32.1505 23.236C32.3185 23.02 32.4145 22.84 32.4385 22.696C32.4625 22.552 32.3905 22.372 32.2225 22.156ZM25.6705 23.416C25.5025 23.368 25.3945 23.392 25.3465 23.488C25.2985 23.56 25.2265 23.656 25.1305 23.776C25.0585 23.896 24.9985 23.992 24.9505 24.064C24.9265 24.112 24.9625 24.196 25.0585 24.316C25.2025 24.532 25.3825 24.604 25.5985 24.532C25.8625 24.46 25.9945 24.292 25.9945 24.028C25.9945 23.86 25.9825 23.728 25.9585 23.632C25.9345 23.536 25.8385 23.464 25.6705 23.416ZM27.6865 24.28C27.5665 24.184 27.4585 24.112 27.3625 24.064C27.2905 23.992 27.1705 24.004 27.0025 24.1C26.8585 24.196 26.7865 24.292 26.7865 24.388C26.8105 24.484 26.8345 24.616 26.8585 24.784C26.9065 24.952 26.9425 25.084 26.9665 25.18C27.0145 25.252 27.1225 25.3 27.2905 25.324C27.4585 25.348 27.5665 25.324 27.6145 25.252C27.6625 25.156 27.7225 25.024 27.7945 24.856C27.8905 24.616 27.8545 24.424 27.6865 24.28ZM29.8825 24.28C29.7865 24.184 29.7025 24.124 29.6305 24.1C29.5585 24.052 29.4625 24.064 29.3425 24.136C29.1985 24.208 29.1145 24.28 29.0905 24.352C29.0905 24.424 29.1025 24.532 29.1265 24.676C29.1745 24.892 29.3185 25.012 29.5585 25.036C29.7025 25.06 29.8105 25.072 29.8825 25.072C29.9785 25.048 30.0625 24.976 30.1345 24.856C30.1825 24.712 30.1825 24.616 30.1345 24.568C30.0865 24.496 30.0025 24.4 29.8825 24.28ZM31.6825 25.144C31.6825 25 31.6345 24.916 31.5385 24.892C31.4665 24.844 31.3585 24.796 31.2145 24.748C31.0705 24.724 30.9505 24.7 30.8545 24.676C30.7825 24.652 30.7105 24.7 30.6385 24.82C30.5425 24.94 30.5065 25.048 30.5305 25.144C30.5545 25.216 30.6145 25.312 30.7105 25.432C30.8065 25.576 30.8905 25.672 30.9625 25.72C31.0345 25.744 31.1425 25.732 31.2865 25.684C31.5505 25.588 31.6825 25.408 31.6825 25.144ZM26.4625 26.44C26.4385 26.296 26.3185 26.212 26.1025 26.188C25.9105 26.164 25.7785 26.212 25.7065 26.332C25.6345 26.5 25.6585 26.656 25.7785 26.8C25.9465 26.944 26.1145 26.98 26.2825 26.908C26.4265 26.812 26.4865 26.656 26.4625 26.44ZM28.5505 26.944C28.0945 26.8 27.7465 26.776 27.5065 26.872C27.2665 26.944 27.0145 27.184 26.7505 27.592C26.4625 27.976 26.2945 28.3 26.2465 28.564C26.2225 28.828 26.3545 29.152 26.6425 29.536C26.9065 29.896 27.1585 30.028 27.3985 29.932C27.6385 29.812 27.9625 29.692 28.3705 29.572C28.7305 29.452 28.9945 29.344 29.1625 29.248C29.3545 29.128 29.4505 28.888 29.4505 28.528C29.4505 28.072 29.4025 27.736 29.3065 27.52C29.2345 27.28 28.9825 27.088 28.5505 26.944ZM31.2145 27.52C31.1425 27.28 31.0105 27.16 30.8185 27.16C30.6745 27.16 30.5905 27.196 30.5665 27.268C30.5425 27.34 30.5065 27.436 30.4585 27.556C30.4105 27.772 30.4465 27.928 30.5665 28.024C30.6625 28.096 30.7345 28.12 30.7825 28.096C30.8545 28.048 30.9265 27.988 30.9985 27.916C31.0945 27.844 31.1665 27.796 31.2145 27.772C31.2625 27.724 31.2625 27.64 31.2145 27.52ZM27.0025 31.3C26.9545 31.108 26.8705 31.012 26.7505 31.012C26.6305 30.988 26.4625 30.952 26.2465 30.904C25.9825 30.856 25.7905 30.952 25.6705 31.192C25.5745 31.36 25.5025 31.504 25.4545 31.624C25.4065 31.72 25.4545 31.852 25.5985 32.02C25.7905 32.188 25.9465 32.296 26.0665 32.344C26.1865 32.368 26.3545 32.32 26.5705 32.2C26.7865 32.104 26.9185 31.996 26.9665 31.876C27.0145 31.756 27.0265 31.564 27.0025 31.3ZM31.6825 31.228C31.5865 31.06 31.4785 30.976 31.3585 30.976C31.2625 30.976 31.1185 30.988 30.9265 31.012C30.7825 31.036 30.6865 31.084 30.6385 31.156C30.6145 31.228 30.5905 31.336 30.5665 31.48C30.5425 31.648 30.5185 31.792 30.4945 31.912C30.4945 32.008 30.5785 32.092 30.7465 32.164C30.9145 32.26 31.0465 32.296 31.1425 32.272C31.2385 32.224 31.3585 32.14 31.5025 32.02C31.6465 31.852 31.7305 31.72 31.7545 31.624C31.8025 31.528 31.7785 31.396 31.6825 31.228ZM51.4313 34.36C49.7033 34.36 48.2273 34.192 47.0033 33.856C45.8033 33.496 44.8193 33.052 44.0513 32.524C43.3073 31.972 42.7553 31.408 42.3953 30.832C42.0353 30.232 41.8433 29.692 41.8193 29.212C41.7953 28.948 41.8673 28.72 42.0353 28.528C42.2273 28.336 42.4433 28.24 42.6833 28.24H49.0913C49.4033 28.264 49.6793 28.372 49.9193 28.564C50.1833 28.732 50.4473 28.9 50.7113 29.068C50.9993 29.236 51.3233 29.32 51.6833 29.32C51.8753 29.32 52.0553 29.272 52.2233 29.176C52.4153 29.08 52.5113 28.948 52.5113 28.78C52.5113 28.564 52.4393 28.372 52.2953 28.204C52.1753 28.036 51.8513 27.868 51.3233 27.7C50.8193 27.508 49.9673 27.304 48.7673 27.088C47.6633 26.872 46.6073 26.536 45.5993 26.08C44.5913 25.624 43.7633 24.988 43.1153 24.172C42.4913 23.356 42.1793 22.324 42.1793 21.076C42.1793 20.044 42.5273 19.06 43.2233 18.124C43.9193 17.188 44.9393 16.42 46.2833 15.82C47.6513 15.22 49.3193 14.92 51.2873 14.92C53.2793 14.92 54.9713 15.208 56.3633 15.784C57.7553 16.36 58.8233 17.044 59.5673 17.836C60.3113 18.628 60.6953 19.372 60.7193 20.068C60.7433 20.332 60.6713 20.56 60.5033 20.752C60.3353 20.944 60.1433 21.04 59.9273 21.04H53.8793C53.5433 21.04 53.2433 20.956 52.9793 20.788C52.7153 20.596 52.4513 20.416 52.1873 20.248C51.9233 20.056 51.6113 19.96 51.2513 19.96C51.0833 19.96 50.9153 20.02 50.7473 20.14C50.6033 20.236 50.5313 20.368 50.5313 20.536C50.5313 20.728 50.6033 20.92 50.7473 21.112C50.8913 21.28 51.2393 21.448 51.7913 21.616C52.3433 21.76 53.2433 21.928 54.4913 22.12C56.2193 22.36 57.5993 22.804 58.6313 23.452C59.6633 24.1 60.3953 24.844 60.8273 25.684C61.2833 26.524 61.5113 27.352 61.5113 28.168C61.5113 30.088 60.6353 31.6 58.8833 32.704C57.1553 33.808 54.6713 34.36 51.4313 34.36ZM50.4233 16.072L50.0633 16.252L50.0273 16.576L50.3873 16.9L50.6393 16.468L50.4233 16.072ZM53.6993 16.648C53.5073 16.6 53.3753 16.624 53.3033 16.72C53.2553 16.816 53.1833 16.948 53.0873 17.116C52.9913 17.284 52.9073 17.416 52.8353 17.512C52.7633 17.608 52.7873 17.728 52.9073 17.872C53.0513 18.04 53.1713 18.1 53.2673 18.052C53.3873 18.004 53.5433 17.944 53.7353 17.872C53.9033 17.8 54.0353 17.74 54.1313 17.692C54.2513 17.62 54.2993 17.488 54.2753 17.296C54.2513 16.936 54.0593 16.72 53.6993 16.648ZM47.9753 16.756L47.7593 16.648L47.6513 16.864L47.7593 17.116L48.0833 17.044L47.9753 16.756ZM57.0113 17.152C56.7953 17.104 56.6393 17.116 56.5433 17.188C56.4473 17.236 56.3513 17.356 56.2553 17.548C56.0873 17.836 56.1113 18.1 56.3273 18.34C56.4473 18.484 56.5553 18.556 56.6513 18.556C56.7473 18.532 56.8793 18.484 57.0473 18.412C57.3113 18.292 57.4313 18.112 57.4073 17.872C57.3833 17.656 57.3593 17.488 57.3353 17.368C57.3113 17.248 57.2033 17.176 57.0113 17.152ZM49.4513 17.764C49.1153 17.548 48.8393 17.488 48.6233 17.584C48.4313 17.656 48.1793 17.824 47.8673 18.088C47.5553 18.352 47.3513 18.58 47.2553 18.772C47.1833 18.94 47.2193 19.216 47.3633 19.6C47.4833 19.912 47.6513 20.056 47.8673 20.032C48.0833 19.984 48.3713 19.948 48.7313 19.924C49.0913 19.9 49.3793 19.9 49.5953 19.924C49.8353 19.948 50.0033 19.78 50.0993 19.42C50.1953 18.988 50.2073 18.664 50.1353 18.448C50.0633 18.232 49.8353 18.004 49.4513 17.764ZM55.7873 19.276H55.4273L55.3193 19.672L55.6793 19.78L55.8593 19.564L55.7873 19.276ZM58.4513 19.6L58.0913 19.816L58.1633 20.248L58.5593 20.176L58.6673 19.888L58.4513 19.6ZM45.3833 20.284C45.2873 20.188 45.2153 20.104 45.1673 20.032C45.1193 19.96 45.0353 19.96 44.9153 20.032C44.6753 20.152 44.5793 20.332 44.6273 20.572C44.6753 20.812 44.8313 20.956 45.0953 21.004C45.3113 21.028 45.4793 20.932 45.5993 20.716C45.6473 20.596 45.6473 20.512 45.5993 20.464C45.5513 20.416 45.4793 20.356 45.3833 20.284ZM49.5593 23.56C49.4153 23.272 49.2953 23.044 49.1993 22.876C49.1033 22.708 48.8993 22.648 48.5873 22.696C48.2273 22.744 47.9873 22.852 47.8673 23.02C47.7713 23.164 47.6873 23.404 47.6153 23.74C47.5673 24.052 47.6033 24.268 47.7233 24.388C47.8673 24.484 48.0713 24.604 48.3353 24.748C48.5993 24.892 48.8153 24.988 48.9833 25.036C49.1513 25.06 49.3433 24.964 49.5593 24.748C49.7513 24.556 49.8233 24.388 49.7753 24.244C49.7513 24.076 49.6793 23.848 49.5593 23.56ZM45.3473 23.236L45.1673 23.02L44.9513 23.2L44.9153 23.524H45.2753L45.3473 23.236ZM54.2753 23.344C54.1313 23.32 54.0473 23.356 54.0233 23.452C54.0233 23.524 53.9873 23.62 53.9153 23.74C53.8433 23.86 53.8553 23.98 53.9513 24.1C54.0953 24.22 54.2153 24.256 54.3113 24.208C54.5273 24.112 54.6233 23.98 54.5993 23.812C54.5753 23.668 54.5513 23.56 54.5273 23.488C54.5033 23.416 54.4193 23.368 54.2753 23.344ZM56.6873 26.26C56.0393 26.092 55.5353 26.02 55.1753 26.044C54.8393 26.068 54.4793 26.356 54.0953 26.908C53.7353 27.46 53.5913 27.916 53.6633 28.276C53.7353 28.612 53.9753 29.056 54.3833 29.608C54.7193 30.04 55.0313 30.184 55.3193 30.04C55.6313 29.896 56.0513 29.728 56.5793 29.536C57.1073 29.344 57.5393 29.212 57.8753 29.14C58.2353 29.044 58.4033 28.72 58.3793 28.168C58.3553 27.52 58.2113 27.088 57.9473 26.872C57.7073 26.656 57.2873 26.452 56.6873 26.26ZM53.3033 26.872C53.2793 26.68 53.1473 26.548 52.9073 26.476C52.7633 26.452 52.6433 26.44 52.5473 26.44C52.4753 26.44 52.4033 26.5 52.3313 26.62C52.2113 26.812 52.2353 27.016 52.4033 27.232C52.5473 27.4 52.7393 27.436 52.9793 27.34C53.2193 27.244 53.3273 27.088 53.3033 26.872ZM49.8833 29.572C49.7153 29.428 49.5713 29.332 49.4513 29.284C49.3313 29.212 49.1753 29.236 48.9833 29.356C48.7913 29.476 48.7193 29.596 48.7673 29.716C48.8393 29.836 48.8993 30.004 48.9473 30.22C49.0193 30.436 49.0553 30.616 49.0553 30.76C49.0553 30.88 49.1633 30.952 49.3793 30.976C49.6433 31 49.8353 30.976 49.9553 30.904C50.0753 30.832 50.1833 30.676 50.2793 30.436C50.3753 30.22 50.3753 30.064 50.2793 29.968C50.2073 29.872 50.0753 29.74 49.8833 29.572ZM46.4273 31.12C46.2353 31.096 46.0913 31.096 45.9953 31.12C45.8993 31.12 45.8033 31.204 45.7073 31.372C45.6353 31.54 45.6353 31.672 45.7073 31.768C45.7793 31.84 45.8753 31.936 45.9953 32.056C46.1633 32.2 46.2833 32.332 46.3553 32.452C46.4273 32.548 46.5593 32.548 46.7513 32.452C46.9433 32.356 47.0273 32.248 47.0033 32.128C46.9793 31.984 46.9553 31.804 46.9313 31.588C46.8833 31.324 46.7153 31.168 46.4273 31.12ZM55.3553 31.336L54.9953 31.156L54.7433 31.408L54.8873 31.696H55.2113L55.3553 31.336ZM54.4553 32.236L54.1673 32.2V32.488L54.3833 32.776L54.5273 32.452L54.4553 32.236Z" fill="#E9E9E9"/>
<path d="M24.468 46.12C23.892 46.12 23.4 46.064 22.992 45.952C22.592 45.832 22.264 45.684 22.008 45.508C21.76 45.324 21.576 45.136 21.456 44.944C21.336 44.744 21.272 44.564 21.264 44.404C21.256 44.316 21.28 44.24 21.336 44.176C21.4 44.112 21.472 44.08 21.552 44.08H23.688C23.792 44.088 23.884 44.124 23.964 44.188C24.052 44.244 24.14 44.3 24.228 44.356C24.324 44.412 24.432 44.44 24.552 44.44C24.616 44.44 24.676 44.424 24.732 44.392C24.796 44.36 24.828 44.316 24.828 44.26C24.828 44.188 24.804 44.124 24.756 44.068C24.716 44.012 24.608 43.956 24.432 43.9C24.264 43.836 23.98 43.768 23.58 43.696C23.212 43.624 22.86 43.512 22.524 43.36C22.188 43.208 21.912 42.996 21.696 42.724C21.488 42.452 21.384 42.108 21.384 41.692C21.384 41.348 21.5 41.02 21.732 40.708C21.964 40.396 22.304 40.14 22.752 39.94C23.208 39.74 23.764 39.64 24.42 39.64C25.084 39.64 25.648 39.736 26.112 39.928C26.576 40.12 26.932 40.348 27.18 40.612C27.428 40.876 27.556 41.124 27.564 41.356C27.572 41.444 27.548 41.52 27.492 41.584C27.436 41.648 27.372 41.68 27.3 41.68H25.284C25.172 41.68 25.072 41.652 24.984 41.596C24.896 41.532 24.808 41.472 24.72 41.416C24.632 41.352 24.528 41.32 24.408 41.32C24.352 41.32 24.296 41.34 24.24 41.38C24.192 41.412 24.168 41.456 24.168 41.512C24.168 41.576 24.192 41.64 24.24 41.704C24.288 41.76 24.404 41.816 24.588 41.872C24.772 41.92 25.072 41.976 25.488 42.04C26.064 42.12 26.524 42.268 26.868 42.484C27.212 42.7 27.456 42.948 27.6 43.228C27.752 43.508 27.828 43.784 27.828 44.056C27.828 44.696 27.536 45.2 26.952 45.568C26.376 45.936 25.548 46.12 24.468 46.12ZM24.132 40.024L24.012 40.084L24 40.192L24.12 40.3L24.204 40.156L24.132 40.024ZM25.224 40.216C25.16 40.2 25.116 40.208 25.092 40.24C25.076 40.272 25.052 40.316 25.02 40.372C24.988 40.428 24.96 40.472 24.936 40.504C24.912 40.536 24.92 40.576 24.96 40.624C25.008 40.68 25.048 40.7 25.08 40.684C25.12 40.668 25.172 40.648 25.236 40.624C25.292 40.6 25.336 40.58 25.368 40.564C25.408 40.54 25.424 40.496 25.416 40.432C25.408 40.312 25.344 40.24 25.224 40.216ZM23.316 40.252L23.244 40.216L23.208 40.288L23.244 40.372L23.352 40.348L23.316 40.252ZM26.328 40.384C26.256 40.368 26.204 40.372 26.172 40.396C26.14 40.412 26.108 40.452 26.076 40.516C26.02 40.612 26.028 40.7 26.1 40.78C26.14 40.828 26.176 40.852 26.208 40.852C26.24 40.844 26.284 40.828 26.34 40.804C26.428 40.764 26.468 40.704 26.46 40.624C26.452 40.552 26.444 40.496 26.436 40.456C26.428 40.416 26.392 40.392 26.328 40.384ZM23.808 40.588C23.696 40.516 23.604 40.496 23.532 40.528C23.468 40.552 23.384 40.608 23.28 40.696C23.176 40.784 23.108 40.86 23.076 40.924C23.052 40.98 23.064 41.072 23.112 41.2C23.152 41.304 23.208 41.352 23.28 41.344C23.352 41.328 23.448 41.316 23.568 41.308C23.688 41.3 23.784 41.3 23.856 41.308C23.936 41.316 23.992 41.26 24.024 41.14C24.056 40.996 24.06 40.888 24.036 40.816C24.012 40.744 23.936 40.668 23.808 40.588ZM25.92 41.092H25.8L25.764 41.224L25.884 41.26L25.944 41.188L25.92 41.092ZM26.808 41.2L26.688 41.272L26.712 41.416L26.844 41.392L26.88 41.296L26.808 41.2ZM22.452 41.428C22.42 41.396 22.396 41.368 22.38 41.344C22.364 41.32 22.336 41.32 22.296 41.344C22.216 41.384 22.184 41.444 22.2 41.524C22.216 41.604 22.268 41.652 22.356 41.668C22.428 41.676 22.484 41.644 22.524 41.572C22.54 41.532 22.54 41.504 22.524 41.488C22.508 41.472 22.484 41.452 22.452 41.428ZM23.844 42.52C23.796 42.424 23.756 42.348 23.724 42.292C23.692 42.236 23.624 42.216 23.52 42.232C23.4 42.248 23.32 42.284 23.28 42.34C23.248 42.388 23.22 42.468 23.196 42.58C23.18 42.684 23.192 42.756 23.232 42.796C23.28 42.828 23.348 42.868 23.436 42.916C23.524 42.964 23.596 42.996 23.652 43.012C23.708 43.02 23.772 42.988 23.844 42.916C23.908 42.852 23.932 42.796 23.916 42.748C23.908 42.692 23.884 42.616 23.844 42.52ZM22.44 42.412L22.38 42.34L22.308 42.4L22.296 42.508H22.416L22.44 42.412ZM25.416 42.448C25.368 42.44 25.34 42.452 25.332 42.484C25.332 42.508 25.32 42.54 25.296 42.58C25.272 42.62 25.276 42.66 25.308 42.7C25.356 42.74 25.396 42.752 25.428 42.736C25.5 42.704 25.532 42.66 25.524 42.604C25.516 42.556 25.508 42.52 25.5 42.496C25.492 42.472 25.464 42.456 25.416 42.448ZM26.22 43.42C26.004 43.364 25.836 43.34 25.716 43.348C25.604 43.356 25.484 43.452 25.356 43.636C25.236 43.82 25.188 43.972 25.212 44.092C25.236 44.204 25.316 44.352 25.452 44.536C25.564 44.68 25.668 44.728 25.764 44.68C25.868 44.632 26.008 44.576 26.184 44.512C26.36 44.448 26.504 44.404 26.616 44.38C26.736 44.348 26.792 44.24 26.784 44.056C26.776 43.84 26.728 43.696 26.64 43.624C26.56 43.552 26.42 43.484 26.22 43.42ZM25.092 43.624C25.084 43.56 25.04 43.516 24.96 43.492C24.912 43.484 24.872 43.48 24.84 43.48C24.816 43.48 24.792 43.5 24.768 43.54C24.728 43.604 24.736 43.672 24.792 43.744C24.84 43.8 24.904 43.812 24.984 43.78C25.064 43.748 25.1 43.696 25.092 43.624ZM23.952 44.524C23.896 44.476 23.848 44.444 23.808 44.428C23.768 44.404 23.716 44.412 23.652 44.452C23.588 44.492 23.564 44.532 23.58 44.572C23.604 44.612 23.624 44.668 23.64 44.74C23.664 44.812 23.676 44.872 23.676 44.92C23.676 44.96 23.712 44.984 23.784 44.992C23.872 45 23.936 44.992 23.976 44.968C24.016 44.944 24.052 44.892 24.084 44.812C24.116 44.74 24.116 44.688 24.084 44.656C24.06 44.624 24.016 44.58 23.952 44.524ZM22.8 45.04C22.736 45.032 22.688 45.032 22.656 45.04C22.624 45.04 22.592 45.068 22.56 45.124C22.536 45.18 22.536 45.224 22.56 45.256C22.584 45.28 22.616 45.312 22.656 45.352C22.712 45.4 22.752 45.444 22.776 45.484C22.8 45.516 22.844 45.516 22.908 45.484C22.972 45.452 23 45.416 22.992 45.376C22.984 45.328 22.976 45.268 22.968 45.196C22.952 45.108 22.896 45.056 22.8 45.04ZM25.776 45.112L25.656 45.052L25.572 45.136L25.62 45.232H25.728L25.776 45.112ZM25.476 45.412L25.38 45.4V45.496L25.452 45.592L25.5 45.484L25.476 45.412ZM32.4353 46C31.8593 46 31.3433 45.924 30.8873 45.772C30.4393 45.612 30.0833 45.344 29.8193 44.968C29.5633 44.592 29.4353 44.076 29.4353 43.42V41.86H28.4873C28.3993 41.86 28.3233 41.828 28.2593 41.764C28.1953 41.7 28.1633 41.624 28.1633 41.536V40.084C28.1633 39.996 28.1953 39.92 28.2593 39.856C28.3233 39.792 28.3993 39.76 28.4873 39.76H29.4353V37.804C29.4353 37.716 29.4673 37.64 29.5312 37.576C29.5953 37.512 29.6713 37.48 29.7593 37.48H31.8593C31.9473 37.48 32.0233 37.512 32.0873 37.576C32.1513 37.64 32.1833 37.716 32.1833 37.804V39.76H33.6953C33.7833 39.76 33.8593 39.792 33.9233 39.856C33.9873 39.92 34.0193 39.996 34.0193 40.084V41.536C34.0193 41.624 33.9873 41.7 33.9233 41.764C33.8593 41.828 33.7833 41.86 33.6953 41.86H32.1833V43.18C32.1833 43.364 32.2233 43.512 32.3033 43.624C32.3913 43.728 32.5233 43.78 32.6993 43.78H33.7913C33.8793 43.78 33.9553 43.812 34.0193 43.876C34.0833 43.94 34.1153 44.016 34.1153 44.104V45.676C34.1153 45.764 34.0833 45.84 34.0193 45.904C33.9553 45.968 33.8793 46 33.7913 46H32.4353ZM31.3913 37.828C31.3193 37.78 31.2593 37.764 31.2113 37.78C31.1713 37.796 31.1233 37.828 31.0673 37.876C31.0033 37.932 30.9593 37.98 30.9353 38.02C30.9193 38.06 30.9273 38.12 30.9593 38.2C30.9913 38.28 31.0273 38.328 31.0673 38.344C31.1073 38.36 31.1713 38.364 31.2593 38.356C31.3393 38.348 31.3913 38.332 31.4153 38.308C31.4473 38.276 31.4713 38.22 31.4873 38.14C31.5113 38.06 31.5193 38 31.5113 37.96C31.5033 37.912 31.4633 37.868 31.3913 37.828ZM30.6113 38.272L30.4913 38.164L30.3473 38.188L30.3953 38.32L30.5153 38.404L30.6113 38.272ZM31.3673 38.656L31.3313 38.56L31.2593 38.62L31.2233 38.728L31.3433 38.74L31.3673 38.656ZM30.3833 38.872C30.3673 38.808 30.3233 38.772 30.2513 38.764C30.2113 38.756 30.1793 38.756 30.1553 38.764C30.1313 38.764 30.1073 38.784 30.0833 38.824C30.0513 38.896 30.0633 38.96 30.1193 39.016C30.1513 39.048 30.1793 39.06 30.2033 39.052C30.2273 39.036 30.2593 39.02 30.2993 39.004C30.3633 38.964 30.3913 38.92 30.3833 38.872ZM30.7913 39.616C30.5993 39.52 30.4433 39.448 30.3233 39.4C30.2113 39.344 30.0793 39.396 29.9273 39.556C29.7753 39.708 29.7233 39.844 29.7713 39.964C29.8273 40.076 29.9073 40.228 30.0113 40.42C30.1073 40.604 30.1913 40.736 30.2633 40.816C30.3353 40.888 30.4713 40.908 30.6713 40.876C30.8713 40.844 30.9993 40.78 31.0553 40.684C31.1113 40.588 31.1513 40.44 31.1753 40.24C31.2073 40.056 31.1913 39.928 31.1273 39.856C31.0713 39.776 30.9593 39.696 30.7913 39.616ZM29.2193 40.396C29.2113 40.34 29.1913 40.308 29.1593 40.3C29.1353 40.284 29.0953 40.272 29.0393 40.264C28.9833 40.264 28.9393 40.268 28.9073 40.276C28.8833 40.284 28.8593 40.316 28.8353 40.372C28.8113 40.428 28.7993 40.476 28.7993 40.516C28.7993 40.548 28.8233 40.584 28.8713 40.624C28.9273 40.672 28.9713 40.7 29.0033 40.708C29.0433 40.716 29.0953 40.7 29.1593 40.66C29.2153 40.62 29.2433 40.584 29.2433 40.552C29.2513 40.512 29.2433 40.46 29.2193 40.396ZM32.1833 41.044C32.1753 40.956 32.1233 40.9 32.0273 40.876C31.9553 40.86 31.8953 40.844 31.8473 40.828C31.8073 40.804 31.7673 40.828 31.7273 40.9C31.6793 40.972 31.6593 41.032 31.6673 41.08C31.6753 41.128 31.7073 41.184 31.7633 41.248C31.8193 41.312 31.8673 41.344 31.9073 41.344C31.9553 41.344 32.0193 41.328 32.0993 41.296C32.1553 41.272 32.1833 41.24 32.1833 41.2C32.1913 41.16 32.1913 41.108 32.1833 41.044ZM29.6033 40.852C29.5713 40.844 29.5433 40.84 29.5193 40.84C29.4953 40.832 29.4713 40.844 29.4473 40.876C29.3993 40.948 29.3993 41.012 29.4473 41.068C29.4793 41.1 29.5073 41.116 29.5312 41.116C29.5553 41.108 29.5873 41.096 29.6273 41.08C29.6753 41.064 29.6993 41.02 29.6993 40.948C29.6993 40.9 29.6673 40.868 29.6033 40.852ZM32.9273 40.996L32.8073 41.02L32.8433 41.14L32.9633 41.164L32.9873 41.056L32.9273 40.996ZM29.1113 41.344L28.9913 41.284L28.9553 41.416L29.0153 41.488L29.1353 41.464L29.1113 41.344ZM31.2953 41.44L31.1513 41.392L31.0673 41.488L31.1393 41.572L31.2473 41.56L31.2953 41.44ZM30.5993 41.704C30.5913 41.64 30.5713 41.6 30.5393 41.584C30.5073 41.568 30.4633 41.556 30.4073 41.548C30.3273 41.54 30.2633 41.528 30.2153 41.512C30.1673 41.496 30.1233 41.524 30.0833 41.596C30.0433 41.668 30.0353 41.724 30.0593 41.764C30.0913 41.804 30.1353 41.856 30.1913 41.92C30.2393 41.968 30.2793 41.988 30.3113 41.98C30.3513 41.964 30.3993 41.94 30.4553 41.908C30.5113 41.884 30.5513 41.86 30.5753 41.836C30.5993 41.812 30.6073 41.768 30.5993 41.704ZM30.2153 42.376C30.1993 42.312 30.1793 42.268 30.1553 42.244C30.1313 42.22 30.0873 42.208 30.0233 42.208C29.9113 42.208 29.8393 42.26 29.8073 42.364C29.7833 42.428 29.7793 42.476 29.7952 42.508C29.8113 42.54 29.8433 42.576 29.8913 42.616C29.9793 42.672 30.0673 42.672 30.1553 42.616C30.2273 42.552 30.2473 42.472 30.2153 42.376ZM31.3553 42.436C31.3073 42.404 31.2673 42.396 31.2353 42.412C31.2033 42.42 31.1633 42.44 31.1152 42.472C31.0673 42.504 31.0353 42.536 31.0193 42.568C31.0113 42.592 31.0153 42.628 31.0312 42.676C31.0553 42.748 31.0753 42.804 31.0913 42.844C31.1073 42.884 31.1513 42.904 31.2233 42.904C31.3033 42.904 31.3513 42.888 31.3673 42.856C31.3913 42.816 31.4153 42.76 31.4393 42.688C31.4633 42.624 31.4673 42.576 31.4513 42.544C31.4353 42.512 31.4033 42.476 31.3553 42.436ZM31.5353 43.348C31.3513 43.26 31.2113 43.252 31.1152 43.324C31.0273 43.388 30.9153 43.5 30.7793 43.66C30.6513 43.804 30.5673 43.924 30.5273 44.02C30.4873 44.116 30.5153 44.244 30.6113 44.404C30.7233 44.604 30.8273 44.744 30.9233 44.824C31.0193 44.896 31.1753 44.908 31.3913 44.86C31.6153 44.82 31.7513 44.744 31.7993 44.632C31.8473 44.52 31.8833 44.352 31.9073 44.128C31.9313 43.912 31.9233 43.752 31.8833 43.648C31.8513 43.536 31.7353 43.436 31.5353 43.348ZM29.9873 43.948L29.8793 43.96L29.8193 44.068L29.9873 44.044V43.948ZM33.4553 44.296L33.3713 44.224L33.2873 44.296L33.2993 44.416L33.4313 44.404L33.4553 44.296ZM33.0233 44.596C32.9913 44.508 32.9553 44.452 32.9153 44.428C32.8833 44.396 32.8233 44.384 32.7353 44.392C32.6473 44.4 32.5913 44.424 32.5673 44.464C32.5433 44.504 32.5233 44.564 32.5073 44.644C32.4833 44.74 32.4633 44.82 32.4473 44.884C32.4313 44.94 32.4673 44.992 32.5553 45.04C32.6433 45.096 32.7153 45.112 32.7713 45.088C32.8273 45.064 32.8953 45.016 32.9753 44.944C33.0393 44.888 33.0713 44.836 33.0713 44.788C33.0713 44.74 33.0553 44.676 33.0233 44.596ZM32.0393 45.208C32.0313 45.16 32.0153 45.132 31.9913 45.124C31.9673 45.116 31.9273 45.104 31.8713 45.088C31.8073 45.072 31.7593 45.096 31.7273 45.16C31.6793 45.232 31.6793 45.292 31.7273 45.34C31.7513 45.372 31.7753 45.384 31.7993 45.376C31.8233 45.36 31.8553 45.344 31.8953 45.328C31.9353 45.312 31.9713 45.3 32.0033 45.292C32.0353 45.284 32.0473 45.256 32.0393 45.208ZM33.1313 45.52L33.0113 45.556L33.0473 45.688L33.1553 45.676L33.2393 45.592L33.1313 45.52ZM37.226 46.12C36.826 46.12 36.446 46.024 36.086 45.832C35.734 45.64 35.446 45.344 35.222 44.944C35.006 44.544 34.898 44.028 34.898 43.396V40.084C34.898 39.996 34.93 39.92 34.994 39.856C35.058 39.792 35.134 39.76 35.222 39.76H37.514C37.602 39.76 37.678 39.792 37.742 39.856C37.806 39.92 37.838 39.996 37.838 40.084V43.312C37.838 43.752 38.038 43.972 38.438 43.972C38.838 43.972 39.038 43.752 39.038 43.312V40.084C39.038 39.996 39.07 39.92 39.134 39.856C39.198 39.792 39.274 39.76 39.362 39.76H41.642C41.73 39.76 41.806 39.792 41.87 39.856C41.934 39.92 41.966 39.996 41.966 40.084V45.676C41.966 45.764 41.934 45.84 41.87 45.904C41.806 45.968 41.73 46 41.642 46H39.542C39.454 46 39.378 45.968 39.314 45.904C39.25 45.84 39.218 45.764 39.218 45.676V45.28C39.018 45.576 38.742 45.792 38.39 45.928C38.038 46.056 37.65 46.12 37.226 46.12ZM37.202 40.048C37.122 40.04 37.066 40.052 37.034 40.084C37.01 40.116 36.986 40.168 36.962 40.24C36.93 40.304 36.922 40.352 36.938 40.384C36.954 40.416 36.986 40.456 37.034 40.504C37.09 40.552 37.134 40.588 37.166 40.612C37.206 40.628 37.258 40.62 37.322 40.588C37.394 40.548 37.43 40.508 37.43 40.468C37.438 40.42 37.43 40.36 37.406 40.288C37.39 40.208 37.37 40.152 37.346 40.12C37.33 40.08 37.282 40.056 37.202 40.048ZM39.758 40.156L39.638 40.108L39.542 40.18L39.602 40.264L39.686 40.276L39.758 40.156ZM40.958 40.564C40.854 40.444 40.762 40.388 40.682 40.396C40.602 40.396 40.49 40.424 40.346 40.48C40.162 40.544 40.014 40.596 39.902 40.636C39.798 40.668 39.75 40.776 39.758 40.96C39.766 41.168 39.814 41.304 39.902 41.368C39.998 41.432 40.146 41.492 40.346 41.548C40.514 41.596 40.63 41.588 40.694 41.524C40.766 41.46 40.85 41.352 40.946 41.2C41.034 41.072 41.082 40.968 41.09 40.888C41.098 40.8 41.054 40.692 40.958 40.564ZM36.47 40.684C36.374 40.588 36.29 40.54 36.218 40.54C36.154 40.54 36.062 40.568 35.942 40.624C35.822 40.68 35.738 40.736 35.69 40.792C35.65 40.848 35.638 40.94 35.654 41.068C35.67 41.196 35.706 41.284 35.762 41.332C35.818 41.372 35.91 41.404 36.038 41.428C36.15 41.452 36.226 41.444 36.266 41.404C36.314 41.356 36.366 41.28 36.422 41.176C36.486 41.072 36.53 40.988 36.554 40.924C36.578 40.86 36.55 40.78 36.47 40.684ZM39.554 40.624L39.434 40.588L39.338 40.636L39.374 40.732L39.506 40.768L39.554 40.624ZM41.258 41.644L41.174 41.608L41.138 41.704L41.186 41.8L41.258 41.716V41.644ZM37.286 41.836C37.254 41.78 37.214 41.756 37.166 41.764C37.11 41.78 37.082 41.824 37.082 41.896C37.082 41.936 37.078 41.972 37.07 42.004C37.07 42.028 37.094 42.048 37.142 42.064C37.198 42.088 37.238 42.1 37.262 42.1C37.294 42.092 37.326 42.064 37.358 42.016C37.39 41.984 37.394 41.956 37.37 41.932C37.346 41.908 37.318 41.876 37.286 41.836ZM41.414 42.196C41.414 42.14 41.41 42.1 41.402 42.076C41.402 42.044 41.378 42.024 41.33 42.016C41.274 42 41.23 41.996 41.198 42.004C41.166 42.004 41.134 42.028 41.102 42.076C41.07 42.124 41.062 42.164 41.078 42.196C41.094 42.22 41.118 42.256 41.15 42.304C41.182 42.344 41.21 42.372 41.234 42.388C41.258 42.396 41.294 42.392 41.342 42.376C41.39 42.36 41.414 42.34 41.414 42.316C41.414 42.284 41.414 42.244 41.414 42.196ZM39.722 42.028C39.658 41.996 39.61 42.004 39.578 42.052C39.554 42.076 39.546 42.096 39.554 42.112C39.562 42.128 39.574 42.152 39.59 42.184C39.614 42.224 39.63 42.26 39.638 42.292C39.646 42.324 39.67 42.336 39.71 42.328C39.758 42.312 39.778 42.292 39.77 42.268C39.762 42.236 39.762 42.196 39.77 42.148C39.778 42.084 39.762 42.044 39.722 42.028ZM35.738 42.196C35.706 42.156 35.674 42.136 35.642 42.136C35.618 42.128 35.578 42.128 35.522 42.136C35.458 42.152 35.422 42.204 35.414 42.292C35.406 42.34 35.438 42.38 35.51 42.412C35.566 42.436 35.61 42.428 35.642 42.388C35.682 42.348 35.714 42.32 35.738 42.304C35.762 42.28 35.762 42.244 35.738 42.196ZM40.478 42.568C40.454 42.528 40.434 42.5 40.418 42.484C40.402 42.46 40.37 42.456 40.322 42.472C40.25 42.496 40.214 42.552 40.214 42.64C40.214 42.704 40.254 42.748 40.334 42.772C40.39 42.788 40.438 42.768 40.478 42.712C40.51 42.664 40.51 42.616 40.478 42.568ZM37.526 42.568L37.406 42.52L37.31 42.592L37.382 42.676L37.514 42.724L37.526 42.568ZM36.302 42.94C36.294 42.852 36.262 42.804 36.206 42.796C36.15 42.788 36.078 42.776 35.99 42.76C35.926 42.736 35.874 42.728 35.834 42.736C35.802 42.744 35.766 42.776 35.726 42.832C35.686 42.896 35.662 42.952 35.654 43C35.646 43.04 35.67 43.088 35.726 43.144C35.774 43.208 35.818 43.244 35.858 43.252C35.906 43.26 35.97 43.248 36.05 43.216C36.138 43.184 36.202 43.156 36.242 43.132C36.29 43.1 36.31 43.036 36.302 42.94ZM41.354 42.94C41.298 42.9 41.25 42.884 41.21 42.892C41.178 42.9 41.134 42.924 41.078 42.964C41.03 42.996 41.002 43.028 40.994 43.06C40.994 43.092 41.002 43.136 41.018 43.192C41.034 43.256 41.05 43.3 41.066 43.324C41.09 43.348 41.13 43.36 41.186 43.36C41.282 43.36 41.35 43.312 41.39 43.216C41.414 43.152 41.426 43.104 41.426 43.072C41.434 43.032 41.41 42.988 41.354 42.94ZM37.034 43.324C37.018 43.284 37.002 43.252 36.986 43.228C36.97 43.204 36.942 43.196 36.902 43.204C36.838 43.212 36.79 43.22 36.758 43.228C36.726 43.236 36.702 43.272 36.686 43.336C36.678 43.4 36.682 43.448 36.698 43.48C36.722 43.504 36.766 43.532 36.83 43.564C36.878 43.588 36.91 43.588 36.926 43.564C36.95 43.54 36.982 43.512 37.022 43.48C37.062 43.44 37.066 43.388 37.034 43.324ZM40.226 43.456L40.094 43.516L40.13 43.66L40.274 43.684L40.286 43.564L40.226 43.456ZM35.966 43.888C35.918 43.816 35.858 43.792 35.786 43.816C35.698 43.84 35.654 43.888 35.654 43.96C35.654 44.048 35.694 44.108 35.774 44.14C35.814 44.156 35.842 44.152 35.858 44.128C35.874 44.104 35.894 44.076 35.918 44.044C35.942 44.012 35.962 43.988 35.978 43.972C35.994 43.948 35.99 43.92 35.966 43.888ZM40.334 44.236C40.278 44.116 40.23 44.02 40.19 43.948C40.15 43.876 40.062 43.848 39.926 43.864C39.79 43.88 39.718 43.932 39.71 44.02C39.702 44.1 39.686 44.208 39.662 44.344C39.638 44.464 39.618 44.56 39.602 44.632C39.586 44.704 39.634 44.772 39.746 44.836C39.866 44.9 39.958 44.92 40.022 44.896C40.094 44.872 40.182 44.812 40.286 44.716C40.374 44.636 40.414 44.564 40.406 44.5C40.406 44.436 40.382 44.348 40.334 44.236ZM41.078 43.9C41.014 43.892 40.966 43.896 40.934 43.912C40.902 43.92 40.874 43.952 40.85 44.008C40.826 44.056 40.822 44.096 40.838 44.128C40.862 44.152 40.894 44.184 40.934 44.224C40.982 44.264 41.018 44.296 41.042 44.32C41.074 44.344 41.114 44.344 41.162 44.32C41.234 44.28 41.282 44.244 41.306 44.212C41.33 44.18 41.338 44.128 41.33 44.056C41.314 43.984 41.286 43.944 41.246 43.936C41.206 43.92 41.15 43.908 41.078 43.9ZM36.974 44.32C36.934 44.208 36.906 44.12 36.89 44.056C36.882 43.984 36.818 43.948 36.698 43.948C36.586 43.948 36.522 43.984 36.506 44.056C36.49 44.12 36.466 44.208 36.434 44.32C36.41 44.4 36.406 44.46 36.422 44.5C36.446 44.532 36.49 44.572 36.554 44.62C36.618 44.668 36.67 44.692 36.71 44.692C36.75 44.684 36.802 44.66 36.866 44.62C36.93 44.572 36.97 44.528 36.986 44.488C37.002 44.448 36.998 44.392 36.974 44.32ZM38.258 44.488L38.15 44.416L38.078 44.524L38.114 44.656L38.234 44.596L38.258 44.488ZM38.03 44.932C37.998 44.916 37.97 44.916 37.946 44.932C37.93 44.94 37.91 44.96 37.886 44.992C37.854 45.024 37.83 45.052 37.814 45.076C37.798 45.092 37.802 45.12 37.826 45.16C37.85 45.208 37.874 45.24 37.898 45.256C37.922 45.272 37.958 45.276 38.006 45.268C38.054 45.26 38.082 45.244 38.09 45.22C38.098 45.188 38.106 45.144 38.114 45.088C38.122 45.016 38.094 44.964 38.03 44.932ZM38.942 45.088C38.926 45.024 38.894 44.992 38.846 44.992C38.806 44.984 38.75 44.976 38.678 44.968C38.606 44.96 38.546 44.952 38.498 44.944C38.45 44.928 38.41 44.952 38.378 45.016C38.346 45.096 38.338 45.16 38.354 45.208C38.37 45.248 38.406 45.296 38.462 45.352C38.518 45.4 38.562 45.412 38.594 45.388C38.626 45.356 38.674 45.324 38.738 45.292C38.802 45.26 38.854 45.236 38.894 45.22C38.934 45.204 38.95 45.16 38.942 45.088ZM37.634 45.292C37.602 45.252 37.57 45.236 37.538 45.244C37.514 45.252 37.478 45.264 37.43 45.28C37.374 45.296 37.33 45.312 37.298 45.328C37.274 45.336 37.262 45.368 37.262 45.424C37.262 45.48 37.278 45.516 37.31 45.532C37.342 45.54 37.382 45.548 37.43 45.556C37.494 45.58 37.542 45.596 37.574 45.604C37.606 45.612 37.642 45.592 37.682 45.544C37.714 45.496 37.722 45.456 37.706 45.424C37.698 45.384 37.674 45.34 37.634 45.292ZM36.842 45.376C36.81 45.312 36.754 45.288 36.674 45.304C36.618 45.312 36.578 45.324 36.554 45.34C36.53 45.356 36.514 45.388 36.506 45.436C36.498 45.484 36.51 45.512 36.542 45.52C36.574 45.528 36.61 45.54 36.65 45.556C36.682 45.572 36.71 45.584 36.734 45.592C36.758 45.6 36.782 45.588 36.806 45.556C36.862 45.492 36.874 45.432 36.842 45.376ZM40.058 45.64L39.974 45.52L39.878 45.604L39.866 45.688L39.962 45.712L40.058 45.64ZM45.4319 46.12C44.9679 46.12 44.5479 46.028 44.1719 45.844C43.8039 45.66 43.5039 45.364 43.2719 44.956C43.0479 44.548 42.9199 44.012 42.8879 43.348C42.8799 43.164 42.8759 43.004 42.8759 42.868C42.8759 42.732 42.8799 42.576 42.8879 42.4C42.9119 41.768 43.0359 41.252 43.2599 40.852C43.4919 40.444 43.7959 40.14 44.1719 39.94C44.5479 39.74 44.9679 39.64 45.4319 39.64C45.7679 39.64 46.0679 39.692 46.3319 39.796C46.6039 39.892 46.8359 40.028 47.0279 40.204V37.804C47.0279 37.716 47.0599 37.64 47.1239 37.576C47.1879 37.512 47.2639 37.48 47.3519 37.48H49.5719C49.6599 37.48 49.7359 37.512 49.7999 37.576C49.8639 37.64 49.8959 37.716 49.8959 37.804V45.676C49.8959 45.764 49.8639 45.84 49.7999 45.904C49.7359 45.968 49.6599 46 49.5719 46H47.5319C47.4439 46 47.3679 45.968 47.3039 45.904C47.2399 45.84 47.2079 45.764 47.2079 45.676V45.4C47.0159 45.616 46.7759 45.792 46.4879 45.928C46.1999 46.056 45.8479 46.12 45.4319 46.12ZM49.0079 37.756C48.9279 37.724 48.8639 37.716 48.8159 37.732C48.7759 37.748 48.7279 37.784 48.6719 37.84C48.6239 37.896 48.6119 37.944 48.6359 37.984C48.6599 38.016 48.6879 38.06 48.7199 38.116C48.7679 38.204 48.8319 38.24 48.9119 38.224C48.9759 38.208 49.0199 38.192 49.0439 38.176C49.0759 38.16 49.0959 38.12 49.1039 38.056C49.1119 37.984 49.1159 37.928 49.1159 37.888C49.1159 37.84 49.0799 37.796 49.0079 37.756ZM48.6359 38.908C48.5079 38.836 48.4039 38.796 48.3239 38.788C48.2519 38.78 48.1639 38.824 48.0599 38.92C47.9399 39.016 47.8719 39.104 47.8559 39.184C47.8399 39.256 47.8599 39.364 47.9159 39.508C47.9719 39.636 48.0359 39.708 48.1079 39.724C48.1879 39.74 48.2959 39.744 48.4319 39.736C48.5839 39.72 48.6999 39.704 48.7799 39.688C48.8679 39.664 48.9279 39.58 48.9599 39.436C48.9919 39.284 48.9759 39.18 48.9119 39.124C48.8559 39.06 48.7639 38.988 48.6359 38.908ZM47.5079 39.388L47.4119 39.412L47.3999 39.532L47.5079 39.556L47.5799 39.472L47.5079 39.388ZM48.4679 40.168C48.3959 40.112 48.3359 40.084 48.2879 40.084C48.2399 40.084 48.1799 40.108 48.1079 40.156C48.0359 40.196 47.9959 40.24 47.9879 40.288C47.9879 40.328 47.9999 40.388 48.0239 40.468C48.0399 40.548 48.0599 40.608 48.0839 40.648C48.1079 40.688 48.1599 40.712 48.2399 40.72C48.3359 40.728 48.4039 40.72 48.4439 40.696C48.4839 40.664 48.5199 40.608 48.5519 40.528C48.5839 40.44 48.5919 40.372 48.5759 40.324C48.5679 40.276 48.5319 40.224 48.4679 40.168ZM45.7799 40.3C45.7079 40.268 45.6519 40.268 45.6119 40.3C45.5799 40.324 45.5359 40.368 45.4799 40.432C45.3999 40.52 45.3919 40.612 45.4559 40.708C45.5039 40.796 45.5399 40.868 45.5639 40.924C45.5879 40.98 45.6479 40.996 45.7439 40.972C45.8559 40.948 45.9279 40.912 45.9599 40.864C45.9919 40.808 46.0119 40.728 46.0199 40.624C46.0279 40.52 46.0119 40.452 45.9719 40.42C45.9399 40.38 45.8759 40.34 45.7799 40.3ZM46.4399 41.044C46.4319 41.004 46.4199 40.972 46.4039 40.948C46.3959 40.924 46.3719 40.912 46.3319 40.912C46.2839 40.912 46.2559 40.924 46.2479 40.948C46.2399 40.972 46.2279 41.004 46.2119 41.044C46.2039 41.092 46.1959 41.128 46.1879 41.152C46.1799 41.176 46.1919 41.2 46.2239 41.224C46.3039 41.28 46.3799 41.284 46.4519 41.236C46.4839 41.204 46.4919 41.176 46.4759 41.152C46.4679 41.12 46.4559 41.084 46.4399 41.044ZM44.6639 41.296C44.6479 41.168 44.6119 41.084 44.5559 41.044C44.5079 40.996 44.4159 40.96 44.2799 40.936C44.1519 40.92 44.0599 40.932 44.0039 40.972C43.9559 41.004 43.9039 41.08 43.8479 41.2C43.7999 41.296 43.7959 41.368 43.8359 41.416C43.8839 41.456 43.9439 41.512 44.0159 41.584C44.1119 41.672 44.1799 41.748 44.2199 41.812C44.2679 41.876 44.3479 41.88 44.4599 41.824C44.5799 41.76 44.6479 41.692 44.6639 41.62C44.6879 41.548 44.6879 41.44 44.6639 41.296ZM48.9359 41.584C48.7439 41.448 48.5879 41.376 48.4679 41.368C48.3479 41.352 48.1919 41.412 47.9999 41.548C47.7999 41.692 47.6719 41.824 47.6159 41.944C47.5679 42.064 47.5839 42.24 47.6639 42.472C47.7359 42.712 47.8279 42.868 47.9399 42.94C48.0519 43.004 48.2319 43.036 48.4799 43.036C48.7439 43.036 48.9359 43.008 49.0559 42.952C49.1839 42.896 49.2879 42.744 49.3679 42.496C49.4479 42.256 49.4439 42.084 49.3559 41.98C49.2759 41.868 49.1359 41.736 48.9359 41.584ZM46.4279 43.972C46.6519 43.972 46.8039 43.912 46.8839 43.792C46.9719 43.664 47.0199 43.492 47.0279 43.276C47.0439 43.092 47.0519 42.944 47.0519 42.832C47.0519 42.712 47.0439 42.564 47.0279 42.388C47.0199 42.196 46.9679 42.048 46.8719 41.944C46.7839 41.84 46.6359 41.788 46.4279 41.788C46.2039 41.788 46.0519 41.852 45.9719 41.98C45.8999 42.1 45.8519 42.268 45.8279 42.484C45.8039 42.748 45.8039 43.012 45.8279 43.276C45.8519 43.492 45.8999 43.664 45.9719 43.792C46.0519 43.912 46.2039 43.972 46.4279 43.972ZM45.4199 42.172C45.3639 42.108 45.3119 42.084 45.2639 42.1C45.2239 42.108 45.1639 42.124 45.0839 42.148C44.9959 42.18 44.9279 42.208 44.8799 42.232C44.8319 42.248 44.8119 42.304 44.8199 42.4C44.8279 42.496 44.8479 42.564 44.8799 42.604C44.9199 42.636 44.9879 42.664 45.0839 42.688C45.1719 42.712 45.2319 42.708 45.2639 42.676C45.3039 42.644 45.3439 42.592 45.3839 42.52C45.4319 42.448 45.4639 42.388 45.4799 42.34C45.4959 42.292 45.4759 42.236 45.4199 42.172ZM43.7999 43.204C43.7919 43.14 43.7639 43.1 43.7159 43.084C43.6839 43.076 43.6599 43.08 43.6439 43.096C43.6279 43.112 43.6119 43.136 43.5959 43.168C43.5719 43.2 43.5519 43.228 43.5359 43.252C43.5199 43.268 43.5239 43.292 43.5479 43.324C43.5799 43.356 43.6079 43.372 43.6319 43.372C43.6559 43.364 43.6879 43.352 43.7279 43.336C43.7839 43.32 43.8079 43.276 43.7999 43.204ZM45.4559 43.48C45.4479 43.408 45.4279 43.36 45.3959 43.336C45.3639 43.312 45.3119 43.292 45.2399 43.276C45.1519 43.26 45.0839 43.252 45.0359 43.252C44.9879 43.244 44.9439 43.276 44.9039 43.348C44.8479 43.436 44.8199 43.508 44.8199 43.564C44.8279 43.62 44.8679 43.684 44.9399 43.756C45.0039 43.82 45.0599 43.852 45.1079 43.852C45.1559 43.844 45.2239 43.82 45.3119 43.78C45.3839 43.74 45.4279 43.7 45.4439 43.66C45.4599 43.62 45.4639 43.56 45.4559 43.48ZM49.1279 43.384C49.0239 43.328 48.9399 43.312 48.8759 43.336C48.8119 43.352 48.7399 43.404 48.6599 43.492C48.5719 43.572 48.5199 43.644 48.5039 43.708C48.4879 43.772 48.5079 43.856 48.5639 43.96C48.6119 44.056 48.6639 44.1 48.7199 44.092C48.7839 44.076 48.8719 44.06 48.9839 44.044C49.0639 44.028 49.1239 44.008 49.1639 43.984C49.2039 43.96 49.2319 43.904 49.2479 43.816C49.2639 43.704 49.2719 43.616 49.2719 43.552C49.2799 43.488 49.2319 43.432 49.1279 43.384ZM43.9919 43.636C43.9519 43.588 43.9159 43.576 43.8839 43.6C43.8519 43.624 43.8119 43.648 43.7639 43.672C43.7159 43.688 43.6759 43.704 43.6439 43.72C43.6199 43.736 43.6119 43.768 43.6199 43.816C43.6279 43.872 43.6399 43.916 43.6559 43.948C43.6719 43.972 43.7079 43.992 43.7639 44.008C43.8279 44.016 43.8719 44.012 43.8959 43.996C43.9199 43.98 43.9479 43.944 43.9799 43.888C44.0119 43.832 44.0319 43.788 44.0399 43.756C44.0479 43.724 44.0319 43.684 43.9919 43.636ZM47.5919 44.128L47.5079 44.08L47.4119 44.128L47.4359 44.248L47.5559 44.212L47.5919 44.128ZM45.0119 44.428C44.8599 44.308 44.7359 44.22 44.6399 44.164C44.5439 44.1 44.4159 44.124 44.2559 44.236C44.1519 44.3 44.0959 44.368 44.0879 44.44C44.0799 44.512 44.0959 44.592 44.1359 44.68C44.1759 44.76 44.2119 44.86 44.2439 44.98C44.2839 45.108 44.3079 45.224 44.3159 45.328C44.3239 45.424 44.3479 45.504 44.3879 45.568C44.4279 45.624 44.5159 45.656 44.6519 45.664C44.7799 45.672 44.8639 45.648 44.9039 45.592C44.9439 45.528 44.9679 45.444 44.9759 45.34C44.9919 45.236 45.0239 45.124 45.0719 45.004C45.1199 44.868 45.1519 44.76 45.1679 44.68C45.1839 44.6 45.1319 44.516 45.0119 44.428ZM49.4999 45.004C49.4359 44.876 49.3799 44.784 49.3319 44.728C49.2919 44.672 49.2039 44.652 49.0679 44.668C48.9159 44.692 48.8079 44.728 48.7439 44.776C48.6799 44.824 48.6359 44.924 48.6119 45.076C48.5879 45.212 48.6119 45.296 48.6839 45.328C48.7639 45.36 48.8639 45.408 48.9839 45.472C49.0799 45.52 49.1559 45.552 49.2119 45.568C49.2759 45.576 49.3479 45.54 49.4279 45.46C49.5079 45.38 49.5519 45.312 49.5599 45.256C49.5679 45.192 49.5479 45.108 49.4999 45.004ZM47.6999 44.8C47.6519 44.76 47.6119 44.736 47.5799 44.728C47.5559 44.712 47.5199 44.72 47.4719 44.752C47.4239 44.792 47.3919 44.828 47.3759 44.86C47.3599 44.892 47.3639 44.94 47.3879 45.004C47.4119 45.076 47.4359 45.128 47.4599 45.16C47.4839 45.184 47.5319 45.196 47.6039 45.196C47.6759 45.196 47.7199 45.18 47.7359 45.148C47.7519 45.108 47.7679 45.056 47.7839 44.992C47.7999 44.944 47.7999 44.908 47.7839 44.884C47.7759 44.86 47.7479 44.832 47.6999 44.8ZM46.4879 45.1C46.4399 45.036 46.4079 44.98 46.3919 44.932C46.3759 44.876 46.3279 44.86 46.2479 44.884C46.1519 44.908 46.0839 44.94 46.0439 44.98C46.0119 45.012 45.9919 45.076 45.9839 45.172C45.9759 45.276 45.9839 45.352 46.0079 45.4C46.0399 45.44 46.1039 45.48 46.1999 45.52C46.2959 45.56 46.3679 45.572 46.4159 45.556C46.4719 45.54 46.5319 45.496 46.5959 45.424C46.6519 45.36 46.6559 45.308 46.6079 45.268C46.5679 45.228 46.5279 45.172 46.4879 45.1ZM48.0959 45.388C48.0479 45.372 48.0119 45.372 47.9879 45.388C47.9719 45.404 47.9519 45.432 47.9279 45.472C47.8799 45.528 47.8719 45.58 47.9039 45.628C47.9359 45.692 47.9879 45.716 48.0599 45.7C48.1239 45.684 48.1599 45.64 48.1679 45.568C48.1679 45.52 48.1639 45.484 48.1559 45.46C48.1559 45.428 48.1359 45.404 48.0959 45.388ZM51.3615 39.1C51.2735 39.1 51.1975 39.068 51.1335 39.004C51.0695 38.94 51.0375 38.864 51.0375 38.776V37.324C51.0375 37.236 51.0695 37.16 51.1335 37.096C51.1975 37.032 51.2735 37 51.3615 37H53.3895C53.4775 37 53.5535 37.032 53.6175 37.096C53.6815 37.16 53.7135 37.236 53.7135 37.324V38.776C53.7135 38.864 53.6815 38.94 53.6175 39.004C53.5535 39.068 53.4775 39.1 53.3895 39.1H51.3615ZM51.9615 37.732L51.8655 37.792L51.8895 37.924L52.0455 37.948L52.0935 37.792L51.9615 37.732ZM52.4175 38.044L52.3335 38.008L52.2135 38.056L52.2855 38.188L52.3935 38.128L52.4175 38.044ZM51.6735 38.2L51.5295 38.236V38.344L51.6135 38.416L51.7215 38.344L51.6735 38.2ZM52.9335 38.26C52.8855 38.26 52.8495 38.26 52.8255 38.26C52.8015 38.26 52.7815 38.28 52.7655 38.32C52.7495 38.36 52.7495 38.392 52.7655 38.416C52.7815 38.432 52.8055 38.452 52.8375 38.476C52.8695 38.508 52.8975 38.536 52.9215 38.56C52.9455 38.576 52.9775 38.572 53.0175 38.548C53.0895 38.5 53.1175 38.432 53.1015 38.344C53.0855 38.296 53.0655 38.272 53.0415 38.272C53.0175 38.272 52.9815 38.268 52.9335 38.26ZM51.3015 46C51.2135 46 51.1375 45.968 51.0735 45.904C51.0095 45.84 50.9775 45.764 50.9775 45.676V40.084C50.9775 39.996 51.0095 39.92 51.0735 39.856C51.1375 39.792 51.2135 39.76 51.3015 39.76H53.4495C53.5375 39.76 53.6135 39.792 53.6775 39.856C53.7415 39.92 53.7735 39.996 53.7735 40.084V45.676C53.7735 45.764 53.7415 45.84 53.6775 45.904C53.6135 45.968 53.5375 46 53.4495 46H51.3015ZM52.2255 40.42L52.1055 40.396L52.0575 40.528L52.1775 40.636L52.3095 40.54L52.2255 40.42ZM53.3295 40.708C53.3135 40.604 53.2615 40.544 53.1735 40.528C53.1255 40.52 53.0935 40.528 53.0775 40.552C53.0615 40.576 53.0415 40.612 53.0175 40.66C52.9775 40.732 52.9775 40.792 53.0175 40.84C53.0815 40.904 53.1455 40.92 53.2095 40.888C53.2575 40.864 53.2895 40.844 53.3055 40.828C53.3295 40.804 53.3375 40.764 53.3295 40.708ZM51.7575 40.816L51.6735 40.792L51.5655 40.852L51.6495 40.96L51.7695 40.936L51.7575 40.816ZM52.8255 41.08C52.7455 41 52.6735 40.972 52.6095 40.996C52.5535 41.02 52.4775 41.052 52.3815 41.092C52.2935 41.132 52.2295 41.172 52.1895 41.212C52.1495 41.244 52.1335 41.308 52.1415 41.404C52.1575 41.516 52.1815 41.596 52.2135 41.644C52.2455 41.684 52.3175 41.712 52.4295 41.728C52.5415 41.752 52.6255 41.756 52.6815 41.74C52.7375 41.724 52.7935 41.668 52.8495 41.572C52.9135 41.468 52.9455 41.384 52.9455 41.32C52.9455 41.248 52.9055 41.168 52.8255 41.08ZM53.4135 41.68C53.3815 41.656 53.3575 41.652 53.3415 41.668C53.3255 41.684 53.3055 41.704 53.2815 41.728C53.2495 41.752 53.2255 41.772 53.2095 41.788C53.1935 41.804 53.1935 41.828 53.2095 41.86C53.2495 41.94 53.3015 41.976 53.3655 41.968C53.4295 41.96 53.4695 41.912 53.4855 41.824C53.4935 41.76 53.4695 41.712 53.4135 41.68ZM51.7695 41.908C51.7535 41.804 51.7015 41.744 51.6135 41.728C51.5575 41.72 51.5175 41.728 51.4935 41.752C51.4775 41.768 51.4575 41.8 51.4335 41.848C51.4095 41.888 51.4055 41.92 51.4215 41.944C51.4375 41.96 51.4615 41.984 51.4935 42.016C51.5175 42.048 51.5375 42.072 51.5535 42.088C51.5775 42.096 51.6055 42.092 51.6375 42.076C51.6855 42.052 51.7215 42.032 51.7455 42.016C51.7695 41.992 51.7775 41.956 51.7695 41.908ZM52.8495 42.124L52.7655 42.064L52.6695 42.088L52.6815 42.208L52.8015 42.232L52.8495 42.124ZM52.5495 42.664C52.5175 42.616 52.4855 42.596 52.4535 42.604C52.4215 42.612 52.3775 42.628 52.3215 42.652C52.2575 42.668 52.2055 42.68 52.1655 42.688C52.1335 42.696 52.1175 42.732 52.1175 42.796C52.1175 42.868 52.1295 42.92 52.1535 42.952C52.1775 42.976 52.2255 43 52.2975 43.024C52.3535 43.04 52.3895 43.036 52.4055 43.012C52.4295 42.98 52.4615 42.94 52.5015 42.892C52.5335 42.844 52.5575 42.808 52.5735 42.784C52.5975 42.752 52.5895 42.712 52.5495 42.664ZM53.4975 42.832C53.4655 42.768 53.4295 42.732 53.3895 42.724C53.3575 42.716 53.3095 42.716 53.2455 42.724C53.1815 42.732 53.1375 42.748 53.1135 42.772C53.0895 42.796 53.0695 42.84 53.0535 42.904C53.0455 42.968 53.0495 43.016 53.0655 43.048C53.0895 43.072 53.1295 43.1 53.1855 43.132C53.2735 43.18 53.3575 43.168 53.4375 43.096C53.4855 43.048 53.5135 43.008 53.5215 42.976C53.5375 42.936 53.5295 42.888 53.4975 42.832ZM51.4215 42.976L51.3135 42.892L51.2175 43.024L51.3135 43.12L51.4215 43.084V42.976ZM52.2855 43.396C52.2535 43.316 52.2095 43.28 52.1535 43.288C52.0655 43.296 52.0135 43.336 51.9975 43.408C51.9895 43.472 52.0215 43.524 52.0935 43.564C52.1575 43.604 52.2175 43.604 52.2735 43.564C52.3135 43.524 52.3175 43.468 52.2855 43.396ZM51.5055 43.588C51.4655 43.556 51.4335 43.532 51.4095 43.516C51.3855 43.492 51.3495 43.496 51.3015 43.528C51.2615 43.56 51.2455 43.592 51.2535 43.624C51.2615 43.648 51.2775 43.688 51.3015 43.744C51.3175 43.792 51.3295 43.828 51.3375 43.852C51.3535 43.876 51.3855 43.888 51.4335 43.888C51.5055 43.888 51.5575 43.884 51.5895 43.876C51.6295 43.868 51.6575 43.832 51.6735 43.768C51.6895 43.712 51.6775 43.676 51.6375 43.66C51.6055 43.644 51.5615 43.62 51.5055 43.588ZM53.2815 43.744C53.2575 43.656 53.2255 43.596 53.1855 43.564C53.1455 43.532 53.0775 43.512 52.9815 43.504C52.8935 43.496 52.8335 43.512 52.8015 43.552C52.7695 43.584 52.7375 43.64 52.7055 43.72C52.6655 43.816 52.6415 43.892 52.6335 43.948C52.6335 43.996 52.6695 44.048 52.7415 44.104C52.8215 44.176 52.8895 44.212 52.9455 44.212C53.0015 44.212 53.0735 44.184 53.1615 44.128C53.2495 44.072 53.2975 44.02 53.3055 43.972C53.3135 43.916 53.3055 43.84 53.2815 43.744ZM52.0215 44.104L51.8895 44.092V44.212L51.9615 44.308L52.0335 44.212L52.0215 44.104ZM51.3735 44.152L51.3015 44.248V44.344L51.4095 44.38L51.4815 44.26L51.3735 44.152ZM53.0415 44.572L52.9575 44.452L52.8495 44.56L52.8855 44.692L53.0175 44.68L53.0415 44.572ZM52.3935 44.68C52.3455 44.6 52.3015 44.544 52.2615 44.512C52.2215 44.48 52.1535 44.476 52.0575 44.5C51.9695 44.516 51.9175 44.548 51.9015 44.596C51.8855 44.644 51.8735 44.716 51.8655 44.812C51.8575 44.892 51.8655 44.948 51.8895 44.98C51.9215 45.012 51.9735 45.04 52.0455 45.064C52.1255 45.104 52.1895 45.132 52.2375 45.148C52.2855 45.164 52.3415 45.136 52.4055 45.064C52.4695 44.992 52.4975 44.932 52.4895 44.884C52.4815 44.828 52.4495 44.76 52.3935 44.68ZM53.4855 44.548L53.4135 44.5L53.3055 44.56L53.3775 44.644L53.4855 44.668V44.548ZM52.9695 44.908C52.9135 44.9 52.8735 44.912 52.8495 44.944C52.8335 44.976 52.8135 45.016 52.7895 45.064C52.7655 45.104 52.7575 45.136 52.7655 45.16C52.7815 45.184 52.8055 45.212 52.8375 45.244C52.8775 45.276 52.9055 45.304 52.9215 45.328C52.9455 45.352 52.9775 45.352 53.0175 45.328C53.1055 45.288 53.1415 45.22 53.1255 45.124C53.1175 45.06 53.1055 45.012 53.0895 44.98C53.0735 44.948 53.0335 44.924 52.9695 44.908ZM58.2622 46.12C56.0622 46.12 54.9022 45.228 54.7822 43.444C54.7582 43.068 54.7582 42.692 54.7822 42.316C54.8462 41.436 55.1822 40.772 55.7902 40.324C56.3982 39.868 57.2222 39.64 58.2622 39.64C59.3022 39.64 60.1262 39.868 60.7342 40.324C61.3502 40.772 61.6862 41.436 61.7422 42.316C61.7662 42.692 61.7662 43.068 61.7422 43.444C61.6222 45.228 60.4622 46.12 58.2622 46.12ZM59.4982 40.108C59.4742 40.052 59.4422 40.032 59.4022 40.048C59.3622 40.064 59.3102 40.072 59.2462 40.072C59.1982 40.072 59.1622 40.076 59.1382 40.084C59.1142 40.092 59.0982 40.116 59.0902 40.156C59.0662 40.22 59.0462 40.272 59.0302 40.312C59.0222 40.352 59.0462 40.388 59.1022 40.42C59.1582 40.46 59.2062 40.476 59.2462 40.468C59.2862 40.46 59.3342 40.432 59.3902 40.384C59.4462 40.336 59.4822 40.296 59.4982 40.264C59.5222 40.232 59.5222 40.18 59.4982 40.108ZM57.3982 40.252C57.3582 40.18 57.3142 40.148 57.2662 40.156C57.2262 40.164 57.1662 40.172 57.0862 40.18C57.0142 40.188 56.9542 40.196 56.9062 40.204C56.8662 40.212 56.8382 40.252 56.8222 40.324C56.8062 40.412 56.8062 40.476 56.8222 40.516C56.8462 40.556 56.8942 40.596 56.9662 40.636C57.0542 40.684 57.1222 40.712 57.1702 40.72C57.2182 40.728 57.2782 40.7 57.3502 40.636C57.4222 40.572 57.4582 40.516 57.4582 40.468C57.4582 40.412 57.4382 40.34 57.3982 40.252ZM58.0942 40.528L57.9982 40.456L57.9022 40.54L57.9382 40.66L58.0342 40.612L58.0942 40.528ZM59.3062 40.804C59.2822 40.748 59.2542 40.716 59.2222 40.708C59.1902 40.7 59.1422 40.7 59.0782 40.708C59.0302 40.716 59.0022 40.736 58.9942 40.768C58.9942 40.792 58.9902 40.828 58.9822 40.876C58.9742 40.932 58.9622 40.98 58.9462 41.02C58.9382 41.052 58.9582 41.08 59.0062 41.104C59.0702 41.136 59.1222 41.152 59.1622 41.152C59.2022 41.152 59.2462 41.128 59.2942 41.08C59.3422 41.032 59.3622 40.992 59.3542 40.96C59.3542 40.92 59.3382 40.868 59.3062 40.804ZM57.7462 40.852C57.7062 40.812 57.6742 40.784 57.6502 40.768C57.6262 40.744 57.5942 40.744 57.5542 40.768C57.5062 40.784 57.4862 40.808 57.4942 40.84C57.5102 40.872 57.5222 40.912 57.5302 40.96C57.5382 41.024 57.5662 41.06 57.6142 41.068C57.6622 41.076 57.6982 41.084 57.7222 41.092C57.7542 41.1 57.7822 41.084 57.8062 41.044C57.8302 40.996 57.8342 40.96 57.8182 40.936C57.8022 40.912 57.7782 40.884 57.7462 40.852ZM60.6502 41.38C60.5062 41.188 60.3742 41.06 60.2542 40.996C60.1422 40.924 59.9742 40.928 59.7502 41.008C59.5342 41.088 59.4222 41.196 59.4142 41.332C59.4062 41.46 59.4062 41.64 59.4142 41.872C59.4222 42.04 59.4662 42.148 59.5462 42.196C59.6262 42.236 59.7502 42.276 59.9182 42.316C60.0702 42.364 60.1902 42.392 60.2782 42.4C60.3742 42.4 60.4662 42.332 60.5542 42.196C60.6742 42.02 60.7502 41.88 60.7822 41.776C60.8222 41.672 60.7782 41.54 60.6502 41.38ZM56.1382 41.968C56.0502 41.816 55.9782 41.7 55.9222 41.62C55.8662 41.54 55.7542 41.516 55.5862 41.548C55.4262 41.588 55.3462 41.66 55.3462 41.764C55.3542 41.868 55.3502 42.004 55.3342 42.172C55.3182 42.324 55.3062 42.448 55.2982 42.544C55.2902 42.632 55.3582 42.708 55.5022 42.772C55.6782 42.844 55.8142 42.876 55.9102 42.868C56.0062 42.86 56.1182 42.784 56.2462 42.64C56.3502 42.512 56.3782 42.404 56.3302 42.316C56.2902 42.228 56.2262 42.112 56.1382 41.968ZM58.2622 44.2C58.4942 44.2 58.6382 44.136 58.6942 44.008C58.7502 43.872 58.7862 43.664 58.8022 43.384C58.8102 43.264 58.8142 43.096 58.8142 42.88C58.8142 42.664 58.8102 42.496 58.8022 42.376C58.7862 42.112 58.7502 41.912 58.6942 41.776C58.6382 41.632 58.4942 41.56 58.2622 41.56C58.0382 41.56 57.8942 41.632 57.8302 41.776C57.7742 41.912 57.7382 42.112 57.7222 42.376C57.7142 42.496 57.7102 42.664 57.7102 42.88C57.7102 43.096 57.7142 43.264 57.7222 43.384C57.7382 43.664 57.7742 43.872 57.8302 44.008C57.8942 44.136 58.0382 44.2 58.2622 44.2ZM57.4822 41.704C57.4662 41.648 57.4382 41.62 57.3982 41.62C57.3662 41.62 57.3222 41.616 57.2662 41.608C57.1782 41.6 57.1222 41.624 57.0982 41.68C57.0822 41.72 57.0782 41.752 57.0862 41.776C57.1022 41.792 57.1302 41.816 57.1702 41.848C57.2022 41.88 57.2262 41.904 57.2422 41.92C57.2662 41.936 57.3022 41.932 57.3502 41.908C57.3982 41.876 57.4342 41.848 57.4582 41.824C57.4822 41.8 57.4902 41.76 57.4822 41.704ZM56.7502 41.644L56.6182 41.608L56.5702 41.728L56.6662 41.776L56.7262 41.74L56.7502 41.644ZM56.8342 42.676C56.7702 42.676 56.7262 42.712 56.7022 42.784C56.6702 42.864 56.6822 42.924 56.7382 42.964C56.8022 43.012 56.8662 43.012 56.9302 42.964C57.0022 42.916 57.0262 42.856 57.0022 42.784C56.9942 42.736 56.9742 42.708 56.9422 42.7C56.9182 42.684 56.8822 42.676 56.8342 42.676ZM61.3222 43.372C61.2582 43.204 61.1702 43.128 61.0582 43.144C60.9542 43.16 60.8142 43.176 60.6382 43.192C60.4942 43.208 60.3902 43.236 60.3262 43.276C60.2702 43.316 60.2262 43.404 60.1942 43.54C60.1622 43.684 60.1582 43.792 60.1822 43.864C60.2062 43.936 60.2822 44.012 60.4102 44.092C60.5702 44.188 60.6942 44.26 60.7822 44.308C60.8782 44.348 60.9982 44.308 61.1422 44.188C61.2942 44.044 61.3822 43.92 61.4062 43.816C61.4302 43.712 61.4022 43.564 61.3222 43.372ZM56.7742 43.324L56.6662 43.3L56.6302 43.408L56.7262 43.492L56.8222 43.42L56.7742 43.324ZM55.6342 43.648C55.5782 43.608 55.5302 43.592 55.4902 43.6C55.4582 43.608 55.4142 43.636 55.3582 43.684C55.2782 43.748 55.2542 43.828 55.2862 43.924C55.3102 43.996 55.3342 44.048 55.3582 44.08C55.3822 44.112 55.4302 44.128 55.5022 44.128C55.5662 44.128 55.5982 44.108 55.5982 44.068C55.6062 44.02 55.6182 43.964 55.6342 43.9C55.6582 43.836 55.6742 43.788 55.6822 43.756C55.6982 43.716 55.6822 43.68 55.6342 43.648ZM56.1262 43.84L56.0062 43.768L55.8982 43.864L55.9942 43.96L56.0902 43.948L56.1262 43.84ZM57.2782 43.924L57.1462 43.84L57.0142 43.936L57.0982 44.044L57.2302 44.08L57.2782 43.924ZM58.2862 44.956C58.2862 44.844 58.2662 44.768 58.2262 44.728C58.1942 44.68 58.1262 44.64 58.0222 44.608C57.9102 44.568 57.8262 44.556 57.7702 44.572C57.7142 44.58 57.6502 44.632 57.5782 44.728C57.5222 44.8 57.5142 44.86 57.5542 44.908C57.6022 44.948 57.6582 45.008 57.7222 45.088C57.7622 45.144 57.7982 45.18 57.8302 45.196C57.8622 45.212 57.9102 45.208 57.9742 45.184C58.0702 45.152 58.1462 45.132 58.2022 45.124C58.2582 45.108 58.2862 45.052 58.2862 44.956ZM55.9462 44.728C55.8982 44.64 55.8182 44.604 55.7062 44.62C55.6502 44.636 55.6182 44.66 55.6102 44.692C55.6022 44.724 55.5942 44.772 55.5862 44.836C55.5782 44.892 55.5742 44.936 55.5742 44.968C55.5742 45 55.6022 45.028 55.6582 45.052C55.7142 45.076 55.7542 45.076 55.7782 45.052C55.8022 45.028 55.8342 44.996 55.8742 44.956C55.9142 44.908 55.9422 44.872 55.9582 44.848C55.9822 44.824 55.9782 44.784 55.9462 44.728ZM58.8622 44.764C58.7982 44.732 58.7462 44.708 58.7062 44.692C58.6662 44.668 58.6222 44.68 58.5742 44.728C58.5262 44.776 58.5142 44.82 58.5382 44.86C58.5702 44.892 58.5982 44.94 58.6222 45.004C58.6462 45.052 58.6662 45.088 58.6822 45.112C58.7062 45.136 58.7422 45.144 58.7902 45.136C58.8702 45.128 58.9302 45.12 58.9702 45.112C59.0182 45.104 59.0502 45.06 59.0662 44.98C59.0742 44.908 59.0582 44.864 59.0182 44.848C58.9782 44.824 58.9262 44.796 58.8622 44.764ZM60.1222 44.848C60.0662 44.784 60.0142 44.76 59.9662 44.776C59.9262 44.784 59.8662 44.804 59.7862 44.836C59.7142 44.876 59.6582 44.912 59.6182 44.944C59.5782 44.976 59.5622 45.032 59.5702 45.112C59.5942 45.232 59.6142 45.324 59.6302 45.388C59.6462 45.452 59.7142 45.496 59.8342 45.52C59.9462 45.536 60.0142 45.512 60.0382 45.448C60.0622 45.376 60.0982 45.288 60.1462 45.184C60.1862 45.112 60.2062 45.052 60.2062 45.004C60.2142 44.956 60.1862 44.904 60.1222 44.848ZM56.7022 44.884C56.6542 44.86 56.6142 44.856 56.5822 44.872C56.5582 44.88 56.5262 44.9 56.4862 44.932C56.4462 44.972 56.4182 45.004 56.4022 45.028C56.3862 45.052 56.3862 45.092 56.4022 45.148C56.4262 45.196 56.4502 45.228 56.4742 45.244C56.5062 45.252 56.5502 45.252 56.6062 45.244C56.6542 45.236 56.6862 45.224 56.7022 45.208C56.7182 45.184 56.7342 45.148 56.7502 45.1C56.7582 45.044 56.7622 45.004 56.7622 44.98C56.7702 44.948 56.7502 44.916 56.7022 44.884ZM59.1142 45.424L58.9462 45.4L58.8742 45.556L59.0062 45.616L59.1142 45.58V45.424Z" fill="#E9E9E9"/>
</svg>
